<svg viewBox="0 0 1498 400" xmlns="http://www.w3.org/2000/svg"><g><g><g><g><g><line x1="94" y1="378" x2="89" y2="378" style="visibility: inherit;" fill="rgb(0, 0, 0)" stroke="rgb(204, 204, 204)" stroke-width="1px"></line><line x1="94" y1="330.75" x2="89" y2="330.75" style="visibility: inherit;" fill="rgb(0, 0, 0)" stroke="rgb(204, 204, 204)" stroke-width="1px"></line><line x1="94" y1="283.5" x2="89" y2="283.5" style="visibility: inherit;" fill="rgb(0, 0, 0)" stroke="rgb(204, 204, 204)" stroke-width="1px"></line><line x1="94" y1="236.25" x2="89" y2="236.25" style="visibility: inherit;" fill="rgb(0, 0, 0)" stroke="rgb(204, 204, 204)" stroke-width="1px"></line><line x1="94" y1="189" x2="89" y2="189" style="visibility: inherit;" fill="rgb(0, 0, 0)" stroke="rgb(204, 204, 204)" stroke-width="1px"></line><line x1="94" y1="141.75" x2="89" y2="141.75" style="visibility: inherit;" fill="rgb(0, 0, 0)" stroke="rgb(204, 204, 204)" stroke-width="1px"></line><line x1="94" y1="94.5" x2="89" y2="94.5" style="visibility: inherit;" fill="rgb(0, 0, 0)" stroke="rgb(204, 204, 204)" stroke-width="1px"></line><line x1="94" y1="47.25" x2="89" y2="47.25" style="visibility: inherit;" fill="rgb(0, 0, 0)" stroke="rgb(204, 204, 204)" stroke-width="1px"></line><line x1="94" y1="0" x2="89" y2="0" style="visibility: inherit;" fill="rgb(0, 0, 0)" stroke="rgb(204, 204, 204)" stroke-width="1px"></line></g><g transform="translate(84, 0)"><text x="0" y="378" dx="0em" dy="0.3em" style="text-anchor: end; visibility: hidden; font-family: &quot;Helvetica Neue&quot;, sans-serif; font-size: 12px; font-weight: 200;" fill="rgb(50, 49, 63)" stroke="none" stroke-width="1px">-3e+3</text><text x="0" y="330.75" dx="0em" dy="0.3em" style="text-anchor: end; visibility: inherit; font-family: &quot;Helvetica Neue&quot;, sans-serif; font-size: 12px; font-weight: 200;" fill="rgb(50, 49, 63)" stroke="none" stroke-width="1px">-2.5e+3</text><text x="0" y="283.5" dx="0em" dy="0.3em" style="text-anchor: end; visibility: inherit; font-family: &quot;Helvetica Neue&quot;, sans-serif; font-size: 12px; font-weight: 200;" fill="rgb(50, 49, 63)" stroke="none" stroke-width="1px">-2e+3</text><text x="0" y="236.25" dx="0em" dy="0.3em" style="text-anchor: end; visibility: inherit; font-family: &quot;Helvetica Neue&quot;, sans-serif; font-size: 12px; font-weight: 200;" fill="rgb(50, 49, 63)" stroke="none" stroke-width="1px">-1.5e+3</text><text x="0" y="189" dx="0em" dy="0.3em" style="text-anchor: end; visibility: inherit; font-family: &quot;Helvetica Neue&quot;, sans-serif; font-size: 12px; font-weight: 200;" fill="rgb(50, 49, 63)" stroke="none" stroke-width="1px">-1e+3</text><text x="0" y="141.75" dx="0em" dy="0.3em" style="text-anchor: end; visibility: inherit; font-family: &quot;Helvetica Neue&quot;, sans-serif; font-size: 12px; font-weight: 200;" fill="rgb(50, 49, 63)" stroke="none" stroke-width="1px">-500</text><text x="0" y="94.5" dx="0em" dy="0.3em" style="text-anchor: end; visibility: inherit; font-family: &quot;Helvetica Neue&quot;, sans-serif; font-size: 12px; font-weight: 200;" fill="rgb(50, 49, 63)" stroke="none" stroke-width="1px">0</text><text x="0" y="47.25" dx="0em" dy="0.3em" style="text-anchor: end; visibility: inherit; font-family: &quot;Helvetica Neue&quot;, sans-serif; font-size: 12px; font-weight: 200;" fill="rgb(50, 49, 63)" stroke="none" stroke-width="1px">500</text><text x="0" y="0" dx="0em" dy="0.3em" style="text-anchor: end; visibility: hidden; font-family: &quot;Helvetica Neue&quot;, sans-serif; font-size: 12px; font-weight: 200;" fill="rgb(50, 49, 63)" stroke="none" stroke-width="1px">1e+3</text></g><line x1="94" y1="0" x2="94" y2="378" fill="rgb(0, 0, 0)" stroke="rgb(204, 204, 204)" stroke-width="1px"></line></g></g><g transform="translate(94, 0)" clip-path="url(#clip_0)"><clipPath id="clip_0"><rect width="1404" height="378"></rect></clipPath><g><g><g><line x1="0" y1="0" x2="0" y2="378" fill="rgb(0, 0, 0)" stroke="rgb(60, 60, 60)" stroke-width="1px" opacity="0.25"></line><line x1="156" y1="0" x2="156" y2="378" fill="rgb(0, 0, 0)" stroke="rgb(60, 60, 60)" stroke-width="1px" opacity="0.25"></line><line x1="312" y1="0" x2="312" y2="378" fill="rgb(0, 0, 0)" stroke="rgb(60, 60, 60)" stroke-width="1px" opacity="0.25"></line><line x1="468" y1="0" x2="468" y2="378" fill="rgb(0, 0, 0)" stroke="rgb(60, 60, 60)" stroke-width="1px" opacity="0.25"></line><line x1="624" y1="0" x2="624" y2="378" fill="rgb(0, 0, 0)" stroke="rgb(60, 60, 60)" stroke-width="1px" opacity="0.25"></line><line x1="780" y1="0" x2="780" y2="378" fill="rgb(0, 0, 0)" stroke="rgb(60, 60, 60)" stroke-width="1px" opacity="0.25"></line><line x1="936" y1="0" x2="936" y2="378" fill="rgb(0, 0, 0)" stroke="rgb(60, 60, 60)" stroke-width="1px" opacity="0.25"></line><line x1="1092" y1="0" x2="1092" y2="378" fill="rgb(0, 0, 0)" stroke="rgb(60, 60, 60)" stroke-width="1px" opacity="0.25"></line><line x1="1248" y1="0" x2="1248" y2="378" fill="rgb(0, 0, 0)" stroke="rgb(60, 60, 60)" stroke-width="1px" opacity="0.25"></line><line x1="1404" y1="0" x2="1404" y2="378" fill="rgb(0, 0, 0)" stroke="rgb(60, 60, 60)" stroke-width="1px" opacity="0.25"></line></g><g><line x1="0" y1="378" x2="1404" y2="378" fill="rgb(0, 0, 0)" stroke="rgb(60, 60, 60)" stroke-width="1px" opacity="0.25"></line><line x1="0" y1="330.75" x2="1404" y2="330.75" fill="rgb(0, 0, 0)" stroke="rgb(60, 60, 60)" stroke-width="1px" opacity="0.25"></line><line x1="0" y1="283.5" x2="1404" y2="283.5" fill="rgb(0, 0, 0)" stroke="rgb(60, 60, 60)" stroke-width="1px" opacity="0.25"></line><line x1="0" y1="236.25" x2="1404" y2="236.25" fill="rgb(0, 0, 0)" stroke="rgb(60, 60, 60)" stroke-width="1px" opacity="0.25"></line><line x1="0" y1="189" x2="1404" y2="189" fill="rgb(0, 0, 0)" stroke="rgb(60, 60, 60)" stroke-width="1px" opacity="0.25"></line><line x1="0" y1="141.75" x2="1404" y2="141.75" fill="rgb(0, 0, 0)" stroke="rgb(60, 60, 60)" stroke-width="1px" opacity="0.25"></line><line x1="0" y1="94.5" x2="1404" y2="94.5" fill="rgb(0, 0, 0)" stroke="rgb(60, 60, 60)" stroke-width="1px" opacity="0.25"></line><line x1="0" y1="47.25" x2="1404" y2="47.25" fill="rgb(0, 0, 0)" stroke="rgb(60, 60, 60)" stroke-width="1px" opacity="0.25"></line><line x1="0" y1="0" x2="1404" y2="0" fill="rgb(0, 0, 0)" stroke="rgb(60, 60, 60)" stroke-width="1px" opacity="0.25"></line></g></g></g><g><g><line x1="0" y1="94.5" x2="1404" y2="94.5" fill="rgb(0, 0, 0)" stroke="rgb(153, 153, 153)" stroke-width="1.5px"></line></g></g><g><g><line x1="156" y1="0" x2="156" y2="378" fill="rgb(0, 0, 0)" stroke="rgb(153, 153, 153)" stroke-width="1.5px"></line></g></g><g><g><g><g><g><path stroke="rgb(51, 187, 238)" stroke-width="2px" d="M157.57248,182.38500000000002L158.97336,177.1875L160.28064,170.57250000000002L160.90152,120.01499999999999L161.40072,110.565L163.72512,225.3825L164.43648,127.57500000000002L164.78279999999998,105.84000000000003L165.99648,155.45250000000001L167.83104,185.6925L168.23976,113.8725L168.95112,124.73999999999998L169.78416,124.26749999999998L171.3192,176.715L172.61712,162.0675L173.5344,130.41L174.55776,148.8375L176.47656,204.12L177.54984,143.64000000000001L178.31112,120.01499999999999L179.70576,164.9025L181.00368,158.76000000000002L181.93656000000001,136.07999999999998L182.8008,128.9925L184.38576,169.6275L186.95664,216.405L189.66168,229.1625L190.70376,145.53L191.8176,138.4425L192.72240000000002,145.53L193.35888,111.03749999999997L195.08112,185.22L198.43511999999998,246.17249999999999L199.21200000000002,126.1575L200.6316,146.0025L202.00128,158.76000000000002L203.77032,165.375L204.41928,115.76249999999999L205.07136000000003,116.23500000000001L206.74056,160.17749999999998L207.73584000000002,140.33249999999998L210.00096,182.85750000000002L211.44864,152.14499999999998L212.30664,124.26749999999998L213.17088,127.10250000000002L214.10688000000002,134.6625L214.46568,105.3675L215.28624,132.29999999999998L218.26272,230.57999999999998L218.95224,134.19L219.66984,123.32250000000002L220.48416000000003,140.33249999999998L221.63855999999998,134.19L222.10343999999998,113.40000000000003L224.77728000000002,193.2525L226.09704,162.54000000000002L226.90824,120.95999999999998L227.53848000000002,116.70749999999998L228.37464,118.59749999999997L229.17023999999998,116.70749999999998L230.01576,118.59749999999997L230.90807999999998,118.125L232.56480000000002,169.155L235.51944,218.76749999999998L237.04824,156.87L238.54272,151.67249999999999L240.40224,158.76000000000002L242.07144,162.54000000000002L243.31320000000002,154.5075L244.94808,157.3425L245.6844,121.90500000000003L250.55784,282.555L251.25672,125.685L252.87911999999997,150.72750000000002L253.30032,101.58750000000003L254.11464,128.9925L255.20976000000002,112.45499999999998L257.0568,157.815L260.51687999999996,223.4925L260.93496,105.84000000000003L261.72744,114.34499999999997L262.90680000000003,137.025L263.98008,137.97L265.11264,127.57500000000002L267.24048,172.935L268.944,161.595L271.986,216.405L273.05616,142.2225L273.50544,114.34499999999997L274.91568,156.87L275.78928,126.1575L276.45072,121.4325L277.4304,128.04749999999999L278.80944,137.97L280.42560000000003,141.2775L282.08232,146.0025L283.01208,125.685L283.6392,106.78499999999997L284.28504000000004,112.92750000000001L285.70464,154.035L287.1024,117.18L289.3644,161.595L290.14128,121.90500000000003L291.28008,128.51999999999998L292.91184,139.85999999999999L294.11303999999996,137.4975L294.72144,109.14749999999998L295.61064,120.95999999999998L296.7432,122.85L298.99584,148.36499999999998L300.03792,113.40000000000003L301.33896,131.82750000000001L302.21256,131.82750000000001L304.11264,161.595L305.40432,124.26749999999998L305.82552,96.38999999999999L309.44784,193.2525L310.42128,119.07L311.9688,146.0025L312.9516,125.2125L313.87512,128.9925L314.84232000000003,127.57500000000002L316.09032,121.4325L317.08872,115.76249999999999L318.53328,126.63L320.64864,160.65L321.46296,103.47750000000002L321.90912000000003,105.3675L323.46912,130.8825L324.75455999999997,119.54250000000002L325.20384,110.09250000000003L326.20536,118.59749999999997L328.1928,140.33249999999998L329.57496000000003,135.13500000000002L330.23016,118.59749999999997L331.05696,120.01499999999999L332.75424,144.11249999999998L334.06152000000003,145.0575L335.53416,124.73999999999998L336.3048,113.8725L340.07687999999996,170.57250000000002L341.28432,124.26749999999998L342.23904,121.90500000000003L343.69608,158.2875L344.22024,110.09250000000003L347.93304,217.35L349.93919999999997,146.94750000000002L353.09352,167.73749999999998L355.29312,155.45250000000001L356.93111999999996,148.8375L357.6768,116.70749999999998L358.52232000000004,106.3125L359.05271999999997,104.42250000000001L360.55656000000005,126.1575L362.76239999999996,146.0025L366.43152000000003,195.14249999999998L367.09608,122.85L368.69975999999997,123.32250000000002L369.37991999999997,100.17000000000002L370.62168,137.97L371.78856,131.35500000000002L376.85855999999995,199.395L378.18768,161.595L379.2048,115.29000000000002L380.83656,133.245L385.79424,247.59L386.56176,116.23500000000001L387.70680000000004,126.1575L389.82216,117.18L392.66448,178.1325L393.33216000000004,102.06L395.37576,138.91500000000002L395.8812,102.53249999999997L398.04024,171.98999999999998L400.03391999999997,152.14499999999998L401.13216,129.465L404.1648,137.025L406.18032,171.98999999999998L410.48592,191.36249999999998L413.93664,167.26500000000001L414.81023999999996,112.45499999999998L417.11591999999996,140.805L419.58384,155.45250000000001L421.13759999999996,137.97L423.07512,146.475L426.79416,199.395L429.93600000000004,137.025L432.2136,166.32L433.3056,124.26749999999998L436.5036,152.6175L437.33976,108.20249999999999L439.22424,113.40000000000003L442.49088000000006,195.615L444.36912,119.07L445.90416000000005,115.76249999999999L447.50784,150.72750000000002L448.4532,106.78499999999997L449.66688,123.32250000000002L450.93672000000004,131.82750000000001L452.33135999999996,116.70749999999998L453.82272,143.16750000000002L454.74312000000003,98.7525L455.61984,111.03749999999997L456.66504,119.07L459.09864000000005,196.0875L459.654,111.50999999999999L460.46831999999995,111.50999999999999L462.24359999999996,125.2125L464.96736,162.54000000000002L465.29184,95.91750000000002L466.27464,111.98250000000002L467.86895999999996,142.695L469.68168000000003,137.025L471.45696000000004,117.65250000000003L472.25256,111.50999999999999L473.07312,111.50999999999999L475.76256,137.97L478.79832000000005,130.8825L481.27871999999996,135.13500000000002L482.01192000000003,105.3675L482.55792,107.73000000000002L483.85895999999997,120.01499999999999L484.22088,99.69749999999999L486.06167999999997,104.89499999999998L487.03511999999995,124.26749999999998L488.25504,108.67500000000001L492.0396,160.65L492.69480000000004,101.11500000000001L493.32504000000006,95.445L493.91784,101.58750000000003L494.48256,105.84000000000003L495.32496,116.23500000000001L496.95671999999996,122.3775L498.37632,118.125L499.26552,108.67500000000001L500.78184,121.4325L502.80048,136.07999999999998L503.38704,98.7525L505.73016,134.19L506.44151999999997,99.22499999999997L507.31823999999995,124.26749999999998L508.52568,111.03749999999997L511.78608,156.39749999999998L513.18696,107.73000000000002L514.41,106.3125L515.9856,141.2775L516.73752,104.89499999999998L517.0308,95.91750000000002L518.29752,107.2575L519.324,124.73999999999998L520.05408,111.03749999999997L521.5704,108.20249999999999L522.3972,103.47750000000002L523.26768,121.90500000000003L523.5516,95.91750000000002L524.42208,98.28000000000003L525.02736,115.29000000000002L526.47504,126.1575L527.5608,103.005L528.32832,118.125L532.44672,164.9025L533.42016,107.2575L534.73056,117.18L535.4980800000001,112.92750000000001L536.61192,105.84000000000003L538.7148,123.79500000000002L540.97992,127.57500000000002L541.8067199999999,106.78499999999997L543.5632800000001,137.025L544.28712,102.06L544.79256,106.3125L546.77376,163.01250000000002L548.52408,122.3775L551.32584,136.07999999999998L552.15888,109.62L552.74544,100.64249999999998L554.07456,119.07L554.5456800000001,94.97249999999997L556.63608,117.65250000000003L557.69376,137.4975L558.6172799999999,109.14749999999998L560.6016000000001,126.1575L561.7934399999999,110.09250000000003L562.8636,97.8075L563.73408,111.50999999999999L565.0413599999999,107.73000000000002L567.4812,119.07L567.83064,89.30250000000001L568.84776,107.2575L569.26272,97.8075L571.26888,136.55249999999998L571.63704,110.09250000000003L572.7290399999999,97.33499999999998L573.98328,113.8725L575.17824,103.005L577.02216,116.70749999999998L578.3107200000001,106.3125L579.7802399999999,112.92750000000001L580.80048,100.17000000000002L581.69904,115.76249999999999L582.47904,107.2575L583.26528,96.38999999999999L584.09208,104.42250000000001L585.6115199999999,113.40000000000003L587.8235999999999,129.9375L588.29472,98.28000000000003L589.21824,111.98250000000002L590.67216,111.50999999999999L592.62528,113.8725L592.93104,95.91750000000002L593.5581599999999,91.66500000000002L593.98248,91.1925L595.16496,110.565L596.67816,120.01499999999999L598.65936,114.8175L600.16632,105.3675L600.98688,113.8725L601.37064,97.33499999999998L603.11472,112.45499999999998L604.07568,106.78499999999997L604.60608,97.33499999999998L605.45784,113.40000000000003L605.8728,99.22499999999997L607.2924,103.94999999999999L608.91168,119.54250000000002L611.7103199999999,163.48499999999999L612.1908,94.02750000000003L612.7118399999999,97.33499999999998L613.81008,111.98250000000002L616.13136,111.50999999999999L617.6476799999999,128.9925L618.92688,137.4975L620.05632,97.33499999999998L621.3916800000001,104.42250000000001L621.87528,90.71999999999997L624.59904,119.07L625.03896,93.555L626.0217600000001,97.33499999999998L626.9484,106.78499999999997L628.37424,123.79500000000002L629.50368,116.23500000000001L630.93264,111.03749999999997L631.96224,110.09250000000003L632.5332,94.02750000000003L632.92944,94.97249999999997L635.0448,133.245L636.402,103.47750000000002L637.06344,101.11500000000001L638.08056,98.7525L638.9292,111.03749999999997L639.7404,110.565L641.43456,115.29000000000002L642.1428,94.02750000000003L643.05384,92.61000000000001L644.36424,104.89499999999998L645.30336,112.92750000000001L646.0428,102.06L646.31736,89.30250000000001L646.98504,93.08249999999998L648.648,125.2125L649.5684,102.53249999999997L650.90688,109.62L651.56832,96.38999999999999L652.1205600000001,95.445L652.67592,105.3675L653.66808,123.79500000000002L655.22184,123.79500000000002L656.0112,110.565L656.6976,91.1925L657.90504,105.3675L658.93152,107.73000000000002L659.3558400000001,99.22499999999997L662.52576,117.18L663.95472,94.02750000000003L664.70664,94.97249999999997L666.29784,123.79500000000002L667.95768,103.005L668.4475199999999,94.97249999999997L669.35232,108.67500000000001L670.2196799999999,90.2475L670.94976,100.17000000000002L671.57064,118.125L672.9309599999999,128.51999999999998L674.46288,117.65250000000003L675.19608,115.76249999999999L675.54864,95.445L677.03688,104.42250000000001L678.0384,127.57500000000002L678.51264,100.17000000000002L680.63112,145.53L682.0195199999999,122.3775L682.92432,102.06L684.0288,100.17000000000002L685.02096,100.17000000000002L686.39376,98.28000000000003L687.79464,94.5L688.39368,105.3675L689.42328,111.03749999999997L689.9724,110.565L690.534,106.78499999999997L691.1455199999999,101.11500000000001L691.3576800000001,88.35750000000002L691.83192,94.97249999999997L692.48088,103.94999999999999L693.2016,105.84000000000003L696.23112,112.45499999999998L697.05792,107.73000000000002L698.04696,102.06L698.98608,110.09250000000003L700.0968,111.98250000000002L700.41504,97.8075L701.63808,109.62L703.35096,121.90500000000003L706.97328,125.2125L708.78912,106.78499999999997L709.79064,95.91750000000002L712.14624,107.2575L712.998,91.66500000000002L713.9964,94.5L714.4519200000001,104.89499999999998L715.37544,108.67500000000001L716.05248,97.33499999999998L717.7715999999999,109.62L718.70136,95.445L719.44704,97.33499999999998L720.1584,90.2475L720.48912,98.28000000000003L721.9461600000001,94.5L722.43288,95.445L722.84784,96.86250000000001L723.17232,93.555L723.79632,88.82999999999998L725.478,101.11500000000001L725.87736,94.97249999999997L726.1394399999999,101.58750000000003L726.66984,103.94999999999999L727.1004,102.53249999999997L728.1331200000001,93.555L729.9957599999999,110.565L730.35456,99.22499999999997L732.1859999999999,110.09250000000003L732.96912,105.84000000000003L733.44648,101.11500000000001L733.98312,94.5L734.73192,103.47750000000002L735.4900799999999,107.2575L736.51968,100.17000000000002L737.9423999999999,95.91750000000002L738.3947999999999,91.1925L739.0032,100.17000000000002L740.71296,117.65250000000003L741.20904,94.02750000000003L741.90168,102.53249999999997L742.88136,93.555L743.9296800000001,98.7525L744.53496,107.2575L745.6176,101.58750000000003L746.94984,106.78499999999997L748.0668000000001,101.11500000000001L749.06208,97.33499999999998L750.2944799999999,102.53249999999997L750.91224,99.69749999999999L751.63296,99.69749999999999L752.6064,121.90500000000003L753.402,106.3125L754.1664000000001,99.22499999999997L754.58136,97.33499999999998L755.49552,95.445L756.23184,102.53249999999997L757.6919999999999,101.11500000000001L758.2785600000001,91.1925L758.77464,99.22499999999997L759.9259199999999,94.5L760.8744,120.95999999999998L761.2332000000001,100.17000000000002L763.4952,109.14749999999998L764.69952,102.06L766.52472,103.94999999999999L767.41704,105.84000000000003L768.04728,103.47750000000002L768.43416,92.13749999999999L769.55424,94.97249999999997L770.59008,103.005L771.0830400000001,88.82999999999998L772.3372800000001,101.58750000000003L774.16248,95.445L774.8987999999999,111.50999999999999L776.41824,104.42250000000001L776.82696,89.77500000000003L777.6943200000001,102.53249999999997L777.91896,91.66500000000002L779.5850399999999,99.22499999999997L780.02184,96.38999999999999L781.31976,107.73000000000002L782.0591999999999,95.445L782.7643200000001,89.77500000000003L783.45384,100.17000000000002L785.9436000000001,104.42250000000001L787.3382399999999,103.005L789.23832,91.66500000000002L789.594,93.555L790.6516799999999,101.11500000000001L791.44104,90.71999999999997L793.6624800000001,123.79500000000002L794.1866400000001,95.445L795.1975199999999,104.42250000000001L795.4221600000001,86.94L796.19904,100.17000000000002L797.31288,137.4975L798.45792,93.08249999999998L799.2784800000001,91.1925L800.49528,90.71999999999997L801.88056,139.85999999999999L803.22216,121.90500000000003L806.31096,120.48750000000001L806.9412,91.66500000000002L808.28904,106.78499999999997L809.4403199999999,103.005L810.33264,89.30250000000001L812.00184,90.2475L812.95344,106.78499999999997L814.21704,95.91750000000002L814.8348000000001,92.13749999999999L816.31056,96.86250000000001L817.34016,111.50999999999999L818.58816,90.2475L819.4087199999999,97.8075L824.9779199999999,112.45499999999998L826.3163999999999,112.92750000000001L827.17752,99.69749999999999L827.6112,102.06L829.9356,124.26749999999998L830.3536799999999,95.445L830.69376,91.1925L832.2350399999999,100.17000000000002L833.7295200000001,113.40000000000003L835.83864,100.64249999999998L840.16296,121.90500000000003L840.6060000000001,85.995L842.3594400000001,94.02750000000003L842.868,89.77500000000003L850.21248,105.84000000000003L852.4464,99.22499999999997L852.8332800000001,96.86250000000001L854.8831200000001,90.2475L856.00632,94.97249999999997L856.9548,103.005L857.67864,91.1925L858.79248,103.94999999999999L860.31504,96.86250000000001L862.06224,89.30250000000001L863.4818399999999,94.02750000000003L864.2088000000001,92.13749999999999L864.53952,92.61000000000001L866.1151199999999,91.66500000000002L870.77016,110.09250000000003L871.95264,106.78499999999997L878.52648,143.64000000000001L879.7307999999999,94.5L881.84928,99.69749999999999L882.1020000000001,93.555L883.61832,102.06L885.96456,97.33499999999998L887.30304,92.61000000000001L887.93016,91.66500000000002L888.87864,94.02750000000003L890.2452,106.3125L891.09384,90.2475L893.30592,93.08249999999998L895.12488,94.97249999999997L895.92672,95.445L897.77064,101.11500000000001L903.12768,114.34499999999997L905.05272,90.2475L906.79368,88.82999999999998L909.64536,119.07L911.38008,90.2475L913.1148,109.62L915.2769599999999,94.02750000000003L916.30344,109.14749999999998L917.79168,110.09250000000003L920.946,109.14749999999998L921.9599999999999,99.22499999999997L923.7290399999999,103.005L924.2188799999999,87.41249999999997L925.3171199999999,97.33499999999998L926.24376,93.08249999999998L928.93632,92.13749999999999L929.69448,86.46750000000003L933.8472,93.08249999999998L936.858,122.85L940.134,112.92750000000001L940.9451999999999,103.005L944.5550400000001,111.50999999999999L946.3521599999999,92.61000000000001L946.85448,86.46750000000003L948.8762399999999,95.91750000000002L950.31456,89.30250000000001L952.91976,93.555L956.00232,87.41249999999997L958.42344,104.42250000000001L961.1534399999999,89.30250000000001L963.16896,112.45499999999998L964.6416,105.3675L965.4372,117.18L966.4512000000001,85.52249999999998L970.12032,95.91750000000002L970.4728799999999,89.30250000000001L971.86752,109.62L972.79728,87.41249999999997L973.56792,91.1925L974.9469599999999,92.61000000000001L975.93912,99.69749999999999L976.6379999999999,92.13749999999999L982.0168799999999,101.58750000000003L987.5517600000001,94.97249999999997L988.44408,103.005L988.97136,90.71999999999997L991.71384,90.71999999999997L995.62008,117.18L997.83216,164.43L999.1644000000001,93.555L1000.96776,165.8475L1001.7352800000001,111.50999999999999L1005.08304,88.82999999999998L1011.0516,101.58750000000003L1011.5632800000001,90.71999999999997L1017.4600800000001,91.1925L1018.15272,111.03749999999997L1022.1806399999999,106.3125L1023.2882400000001,108.67500000000001L1029.46584,89.77500000000003L1031.73096,91.1925L1039.6838400000001,99.22499999999997L1040.01456,86.94L1041.50904,95.445L1042.10808,93.555L1045.1064000000001,101.11500000000001L1052.55384,95.91750000000002L1054.3104,104.42250000000001L1056.17616,87.41249999999997L1057.83912,97.8075L1059.68616,89.30250000000001L1060.65336,89.30250000000001L1061.48328,89.77500000000003L1062.75936,95.445L1064.30064,107.73000000000002L1067.0805599999999,108.67500000000001L1068.3535200000001,105.84000000000003L1069.84488,92.13749999999999L1076.77752,93.08249999999998L1079.57616,89.30250000000001L1083.6134399999999,91.1925L1084.7772,99.69749999999999L1085.50416,91.66500000000002L1087.50408,97.8075L1089.86904,109.14749999999998L1090.27776,92.61000000000001L1094.38056,106.3125L1096.8516,122.3775L1098.7236,90.2475L1102.76712,104.42250000000001L1131.7238399999999,131.82750000000001L1133.01552,85.05000000000001L1137.4303200000002,104.42250000000001L1144.65624,93.555L1149.72312,104.89499999999998L1152.01008,91.1925L1158.93024,114.34499999999997L1166.01264,102.06L1173.31032,91.1925L1175.4288000000001,130.8825L1182.92928,95.91750000000002L1191.44064,88.35750000000002L1198.50744,144.11249999999998L1202.44488,99.22499999999997L1242.68976,111.03749999999997L1249.9968000000001,262.71000000000004L1256.7359999999999,113.40000000000003L1260.7764,85.995L1266.05544,98.7525L1269.18792,132.77249999999998L1303.5204,94.97249999999997L1305.99768,119.07L1309.7604000000001,186.16500000000002L1321.48848,352.485L1342.1148,93.08249999999998L1344.57336,160.65L1351.36872,90.2475L1359.8020800000002,85.995L1361.07816,154.98000000000002L1366.9437599999999,126.63L1375.0869599999999,98.7525" style="fill: none;" fill="none"></path></g></g></g></g></g></g><g transform="translate(94, 378)" clip-path="url(#clip_1)"><clipPath id="clip_1"><rect width="1404" height="22"></rect></clipPath><g><g><line x1="0" y1="0" x2="0" y2="5" style="visibility: inherit;" fill="rgb(0, 0, 0)" stroke="rgb(204, 204, 204)" stroke-width="1px"></line><line x1="156" y1="0" x2="156" y2="5" style="visibility: inherit;" fill="rgb(0, 0, 0)" stroke="rgb(204, 204, 204)" stroke-width="1px"></line><line x1="312" y1="0" x2="312" y2="5" style="visibility: inherit;" fill="rgb(0, 0, 0)" stroke="rgb(204, 204, 204)" stroke-width="1px"></line><line x1="468" y1="0" x2="468" y2="5" style="visibility: inherit;" fill="rgb(0, 0, 0)" stroke="rgb(204, 204, 204)" stroke-width="1px"></line><line x1="624" y1="0" x2="624" y2="5" style="visibility: inherit;" fill="rgb(0, 0, 0)" stroke="rgb(204, 204, 204)" stroke-width="1px"></line><line x1="780" y1="0" x2="780" y2="5" style="visibility: inherit;" fill="rgb(0, 0, 0)" stroke="rgb(204, 204, 204)" stroke-width="1px"></line><line x1="936" y1="0" x2="936" y2="5" style="visibility: inherit;" fill="rgb(0, 0, 0)" stroke="rgb(204, 204, 204)" stroke-width="1px"></line><line x1="1092" y1="0" x2="1092" y2="5" style="visibility: inherit;" fill="rgb(0, 0, 0)" stroke="rgb(204, 204, 204)" stroke-width="1px"></line><line x1="1248" y1="0" x2="1248" y2="5" style="visibility: inherit;" fill="rgb(0, 0, 0)" stroke="rgb(204, 204, 204)" stroke-width="1px"></line><line x1="1404" y1="0" x2="1404" y2="5" style="visibility: inherit;" fill="rgb(0, 0, 0)" stroke="rgb(204, 204, 204)" stroke-width="1px"></line></g><g transform="translate(0, 8)"><text x="0" y="0" dx="0em" dy="0.95em" style="text-anchor: middle; visibility: hidden; font-family: &quot;Helvetica Neue&quot;, sans-serif; font-size: 12px; font-weight: 200;" fill="rgb(50, 49, 63)" stroke="none" stroke-width="1px">-50k</text><text x="156" y="0" dx="0em" dy="0.95em" style="text-anchor: middle; visibility: inherit; font-family: &quot;Helvetica Neue&quot;, sans-serif; font-size: 12px; font-weight: 200;" fill="rgb(50, 49, 63)" stroke="none" stroke-width="1px">0</text><text x="312" y="0" dx="0em" dy="0.95em" style="text-anchor: middle; visibility: inherit; font-family: &quot;Helvetica Neue&quot;, sans-serif; font-size: 12px; font-weight: 200;" fill="rgb(50, 49, 63)" stroke="none" stroke-width="1px">50k</text><text x="468" y="0" dx="0em" dy="0.95em" style="text-anchor: middle; visibility: inherit; font-family: &quot;Helvetica Neue&quot;, sans-serif; font-size: 12px; font-weight: 200;" fill="rgb(50, 49, 63)" stroke="none" stroke-width="1px">100k</text><text x="624" y="0" dx="0em" dy="0.95em" style="text-anchor: middle; visibility: inherit; font-family: &quot;Helvetica Neue&quot;, sans-serif; font-size: 12px; font-weight: 200;" fill="rgb(50, 49, 63)" stroke="none" stroke-width="1px">150k</text><text x="780" y="0" dx="0em" dy="0.95em" style="text-anchor: middle; visibility: inherit; font-family: &quot;Helvetica Neue&quot;, sans-serif; font-size: 12px; font-weight: 200;" fill="rgb(50, 49, 63)" stroke="none" stroke-width="1px">200k</text><text x="936" y="0" dx="0em" dy="0.95em" style="text-anchor: middle; visibility: inherit; font-family: &quot;Helvetica Neue&quot;, sans-serif; font-size: 12px; font-weight: 200;" fill="rgb(50, 49, 63)" stroke="none" stroke-width="1px">250k</text><text x="1092" y="0" dx="0em" dy="0.95em" style="text-anchor: middle; visibility: inherit; font-family: &quot;Helvetica Neue&quot;, sans-serif; font-size: 12px; font-weight: 200;" fill="rgb(50, 49, 63)" stroke="none" stroke-width="1px">300k</text><text x="1248" y="0" dx="0em" dy="0.95em" style="text-anchor: middle; visibility: inherit; font-family: &quot;Helvetica Neue&quot;, sans-serif; font-size: 12px; font-weight: 200;" fill="rgb(50, 49, 63)" stroke="none" stroke-width="1px">350k</text><text x="1404" y="0" dx="0em" dy="0.95em" style="text-anchor: middle; visibility: hidden; font-family: &quot;Helvetica Neue&quot;, sans-serif; font-size: 12px; font-weight: 200;" fill="rgb(50, 49, 63)" stroke="none" stroke-width="1px">400k</text></g><line x1="0" y1="0" x2="1404" y2="0" fill="rgb(0, 0, 0)" stroke="rgb(204, 204, 204)" stroke-width="1px"></line></g></g></g></g></svg>