<svg viewBox="0 0 1498 400" xmlns="http://www.w3.org/2000/svg"><g><g><g><g><g><line x1="70" y1="378" x2="65" y2="378" style="visibility: inherit;" fill="rgb(0, 0, 0)" stroke="rgb(204, 204, 204)" stroke-width="1px"></line><line x1="70" y1="340.2" x2="65" y2="340.2" style="visibility: inherit;" fill="rgb(0, 0, 0)" stroke="rgb(204, 204, 204)" stroke-width="1px"></line><line x1="70" y1="302.4" x2="65" y2="302.4" style="visibility: inherit;" fill="rgb(0, 0, 0)" stroke="rgb(204, 204, 204)" stroke-width="1px"></line><line x1="70" y1="264.6" x2="65" y2="264.6" style="visibility: inherit;" fill="rgb(0, 0, 0)" stroke="rgb(204, 204, 204)" stroke-width="1px"></line><line x1="70" y1="226.79999999999998" x2="65" y2="226.79999999999998" style="visibility: inherit;" fill="rgb(0, 0, 0)" stroke="rgb(204, 204, 204)" stroke-width="1px"></line><line x1="70" y1="189" x2="65" y2="189" style="visibility: inherit;" fill="rgb(0, 0, 0)" stroke="rgb(204, 204, 204)" stroke-width="1px"></line><line x1="70" y1="151.20000000000002" x2="65" y2="151.20000000000002" style="visibility: inherit;" fill="rgb(0, 0, 0)" stroke="rgb(204, 204, 204)" stroke-width="1px"></line><line x1="70" y1="113.40000000000003" x2="65" y2="113.40000000000003" style="visibility: inherit;" fill="rgb(0, 0, 0)" stroke="rgb(204, 204, 204)" stroke-width="1px"></line><line x1="70" y1="75.59999999999997" x2="65" y2="75.59999999999997" style="visibility: inherit;" fill="rgb(0, 0, 0)" stroke="rgb(204, 204, 204)" stroke-width="1px"></line><line x1="70" y1="37.80000000000001" x2="65" y2="37.80000000000001" style="visibility: inherit;" fill="rgb(0, 0, 0)" stroke="rgb(204, 204, 204)" stroke-width="1px"></line><line x1="70" y1="0" x2="65" y2="0" style="visibility: inherit;" fill="rgb(0, 0, 0)" stroke="rgb(204, 204, 204)" stroke-width="1px"></line></g><g transform="translate(60, 0)"><text x="0" y="378" dx="0em" dy="0.3em" style="text-anchor: end; visibility: hidden; font-family: &quot;Helvetica Neue&quot;, sans-serif; font-size: 12px; font-weight: 200;" fill="rgb(50, 49, 63)" stroke="none" stroke-width="1px">-8e+3</text><text x="0" y="340.2" dx="0em" dy="0.3em" style="text-anchor: end; visibility: inherit; font-family: &quot;Helvetica Neue&quot;, sans-serif; font-size: 12px; font-weight: 200;" fill="rgb(50, 49, 63)" stroke="none" stroke-width="1px">-7e+3</text><text x="0" y="302.4" dx="0em" dy="0.3em" style="text-anchor: end; visibility: inherit; font-family: &quot;Helvetica Neue&quot;, sans-serif; font-size: 12px; font-weight: 200;" fill="rgb(50, 49, 63)" stroke="none" stroke-width="1px">-6e+3</text><text x="0" y="264.6" dx="0em" dy="0.3em" style="text-anchor: end; visibility: inherit; font-family: &quot;Helvetica Neue&quot;, sans-serif; font-size: 12px; font-weight: 200;" fill="rgb(50, 49, 63)" stroke="none" stroke-width="1px">-5e+3</text><text x="0" y="226.79999999999998" dx="0em" dy="0.3em" style="text-anchor: end; visibility: inherit; font-family: &quot;Helvetica Neue&quot;, sans-serif; font-size: 12px; font-weight: 200;" fill="rgb(50, 49, 63)" stroke="none" stroke-width="1px">-4e+3</text><text x="0" y="189" dx="0em" dy="0.3em" style="text-anchor: end; visibility: inherit; font-family: &quot;Helvetica Neue&quot;, sans-serif; font-size: 12px; font-weight: 200;" fill="rgb(50, 49, 63)" stroke="none" stroke-width="1px">-3e+3</text><text x="0" y="151.20000000000002" dx="0em" dy="0.3em" style="text-anchor: end; visibility: inherit; font-family: &quot;Helvetica Neue&quot;, sans-serif; font-size: 12px; font-weight: 200;" fill="rgb(50, 49, 63)" stroke="none" stroke-width="1px">-2e+3</text><text x="0" y="113.40000000000003" dx="0em" dy="0.3em" style="text-anchor: end; visibility: inherit; font-family: &quot;Helvetica Neue&quot;, sans-serif; font-size: 12px; font-weight: 200;" fill="rgb(50, 49, 63)" stroke="none" stroke-width="1px">-1e+3</text><text x="0" y="75.59999999999997" dx="0em" dy="0.3em" style="text-anchor: end; visibility: inherit; font-family: &quot;Helvetica Neue&quot;, sans-serif; font-size: 12px; font-weight: 200;" fill="rgb(50, 49, 63)" stroke="none" stroke-width="1px">0</text><text x="0" y="37.80000000000001" dx="0em" dy="0.3em" style="text-anchor: end; visibility: inherit; font-family: &quot;Helvetica Neue&quot;, sans-serif; font-size: 12px; font-weight: 200;" fill="rgb(50, 49, 63)" stroke="none" stroke-width="1px">1e+3</text><text x="0" y="0" dx="0em" dy="0.3em" style="text-anchor: end; visibility: hidden; font-family: &quot;Helvetica Neue&quot;, sans-serif; font-size: 12px; font-weight: 200;" fill="rgb(50, 49, 63)" stroke="none" stroke-width="1px">2e+3</text></g><line x1="70" y1="0" x2="70" y2="378" fill="rgb(0, 0, 0)" stroke="rgb(204, 204, 204)" stroke-width="1px"></line></g></g><g transform="translate(70, 0)" clip-path="url(#clip_0)"><clipPath id="clip_0"><rect width="1428" height="378"></rect></clipPath><g><g><g><line x1="0" y1="0" x2="0" y2="378" fill="rgb(0, 0, 0)" stroke="rgb(60, 60, 60)" stroke-width="1px" opacity="0.25"></line><line x1="204" y1="0" x2="204" y2="378" fill="rgb(0, 0, 0)" stroke="rgb(60, 60, 60)" stroke-width="1px" opacity="0.25"></line><line x1="408" y1="0" x2="408" y2="378" fill="rgb(0, 0, 0)" stroke="rgb(60, 60, 60)" stroke-width="1px" opacity="0.25"></line><line x1="612" y1="0" x2="612" y2="378" fill="rgb(0, 0, 0)" stroke="rgb(60, 60, 60)" stroke-width="1px" opacity="0.25"></line><line x1="816" y1="0" x2="816" y2="378" fill="rgb(0, 0, 0)" stroke="rgb(60, 60, 60)" stroke-width="1px" opacity="0.25"></line><line x1="1020" y1="0" x2="1020" y2="378" fill="rgb(0, 0, 0)" stroke="rgb(60, 60, 60)" stroke-width="1px" opacity="0.25"></line><line x1="1224" y1="0" x2="1224" y2="378" fill="rgb(0, 0, 0)" stroke="rgb(60, 60, 60)" stroke-width="1px" opacity="0.25"></line><line x1="1428" y1="0" x2="1428" y2="378" fill="rgb(0, 0, 0)" stroke="rgb(60, 60, 60)" stroke-width="1px" opacity="0.25"></line></g><g><line x1="0" y1="378" x2="1428" y2="378" fill="rgb(0, 0, 0)" stroke="rgb(60, 60, 60)" stroke-width="1px" opacity="0.25"></line><line x1="0" y1="340.2" x2="1428" y2="340.2" fill="rgb(0, 0, 0)" stroke="rgb(60, 60, 60)" stroke-width="1px" opacity="0.25"></line><line x1="0" y1="302.4" x2="1428" y2="302.4" fill="rgb(0, 0, 0)" stroke="rgb(60, 60, 60)" stroke-width="1px" opacity="0.25"></line><line x1="0" y1="264.6" x2="1428" y2="264.6" fill="rgb(0, 0, 0)" stroke="rgb(60, 60, 60)" stroke-width="1px" opacity="0.25"></line><line x1="0" y1="226.79999999999998" x2="1428" y2="226.79999999999998" fill="rgb(0, 0, 0)" stroke="rgb(60, 60, 60)" stroke-width="1px" opacity="0.25"></line><line x1="0" y1="189" x2="1428" y2="189" fill="rgb(0, 0, 0)" stroke="rgb(60, 60, 60)" stroke-width="1px" opacity="0.25"></line><line x1="0" y1="151.20000000000002" x2="1428" y2="151.20000000000002" fill="rgb(0, 0, 0)" stroke="rgb(60, 60, 60)" stroke-width="1px" opacity="0.25"></line><line x1="0" y1="113.40000000000003" x2="1428" y2="113.40000000000003" fill="rgb(0, 0, 0)" stroke="rgb(60, 60, 60)" stroke-width="1px" opacity="0.25"></line><line x1="0" y1="75.59999999999997" x2="1428" y2="75.59999999999997" fill="rgb(0, 0, 0)" stroke="rgb(60, 60, 60)" stroke-width="1px" opacity="0.25"></line><line x1="0" y1="37.80000000000001" x2="1428" y2="37.80000000000001" fill="rgb(0, 0, 0)" stroke="rgb(60, 60, 60)" stroke-width="1px" opacity="0.25"></line><line x1="0" y1="0" x2="1428" y2="0" fill="rgb(0, 0, 0)" stroke="rgb(60, 60, 60)" stroke-width="1px" opacity="0.25"></line></g></g></g><g><g><line x1="0" y1="75.59999999999997" x2="1428" y2="75.59999999999997" fill="rgb(0, 0, 0)" stroke="rgb(153, 153, 153)" stroke-width="1.5px"></line></g></g><g><g><line x1="204" y1="0" x2="204" y2="378" fill="rgb(0, 0, 0)" stroke="rgb(153, 153, 153)" stroke-width="1.5px"></line></g></g><g><g><g><g><g><path stroke="rgb(255, 112, 67)" stroke-width="2px" d="M205.06488,93.17700000000002L205.95432,88.07400000000001L207.90864,98.09100000000001L210.30360000000002,121.71600000000001L210.90336000000002,84.67199999999997L213.06984000000003,109.99799999999999L214.0368,95.5584L215.1792,92.26979999999998L216.0972,88.452L217.43952,95.63400000000001L218.47176000000002,89.77500000000003L219.01848,82.78199999999998L221.64192000000003,126.59219999999999L222.75984000000003,94.87799999999999L223.56768,85.428L225.2364,105.084L225.95856,90.34199999999998L226.67256,87.31799999999998L227.72928,94.31100000000004L228.85944,96.38999999999999L229.6428,84.483L232.13568,115.101L233.16792,91.09800000000001L233.98800000000003,88.07400000000001L234.68976,88.07400000000001L236.39112,100.92599999999999L237.07248,85.428L238.84727999999998,90.15300000000002L239.44296,81.26999999999998L240.44664,89.39699999999999L241.81751999999997,97.25939999999997L242.80488000000003,89.964L243.39648,84.483L245.99952000000002,106.596L247.34184000000002,98.469L250.93224,142.0146L252.20520000000002,93.17700000000002L253.03752,85.23900000000003L256.05672,108.48599999999999L257.21544,94.31100000000004L258.774,98.09100000000001L260.28768,94.5L261.45048,98.09100000000001L262.22159999999997,83.916L263.4456,80.51400000000001L264.57168,92.42099999999999L266.21592,85.05000000000001L266.88096,81.459L269.54928,115.29000000000002L270.40608,85.428L271.39344,90.34199999999998L272.53584,88.64100000000002L274.13112,88.4142L274.49016,78.62399999999997L275.35103999999995,86.56200000000001L275.89776,79.56900000000002L276.69336000000004,85.05000000000001L278.32536,92.988L279.61464,94.0086L280.50408,86.37299999999999L281.6424,87.507L282.66648,96.20099999999996L284.27808,94.12200000000001L285.98352,87.507L289.54944,127.386L290.19408,83.15999999999997L290.83871999999997,82.971L291.34872,79.38L292.97256,96.38999999999999L294.91872,99.036L295.98768,89.81280000000004L297.25248,89.964L299.78616,88.82999999999998L300.56952,83.72700000000003L303.2868,83.72700000000003L304.76376,97.33499999999998L306.67728,100.17000000000002L307.34232000000003,84.483L308.652,91.77840000000003L309.06816,76.923L310.84296,87.88499999999999L311.92416000000003,87.507L312.63,84.67199999999997L313.5888,84.67199999999997L314.68632,88.07400000000001L315.96336,88.07400000000001L319.57007999999996,130.03199999999998L321.28368,88.452L324.23352,122.2074L324.86592,79.75799999999998L325.83696,85.05000000000001L326.51832,84.86099999999999L327.18744000000004,80.51400000000001L327.73416,79.19100000000003L328.5828,84.483L329.94552,86.75100000000003L331.06344,84.29399999999998L332.10384,86.94L332.61792,78.435L333.3564,83.31120000000004L334.17648,85.05000000000001L334.91496,80.4762L337.79544,107.91899999999998L338.50944,85.23900000000003L340.62288,100.73699999999997L341.69184,83.916L343.88688,103.572L344.97216,89.019L345.56784,82.78199999999998L346.45728,82.02600000000001L347.0856,78.05700000000002L347.61192,79.38L347.97912,76.54500000000002L348.32184,76.923L349.61928,87.69599999999997L350.22720000000004,82.13940000000002L353.35656,97.71299999999997L354.6132,87.507L355.89840000000004,93.555L357.8772,90.90899999999999L358.25256,77.11199999999997L361.01472,101.11500000000001L362.51616,92.23199999999997L364.51128,85.54139999999995L367.21632,84.483L368.39544,91.28700000000003L371.45136,101.11500000000001L371.92463999999995,79.38L373.34855999999996,88.64100000000002L374.15232,84.86099999999999L376.01688,78.05700000000002L376.84103999999996,83.916L377.11440000000005,76.356L377.94264,81.9504L379.36656,79.38L381.14952,94.12200000000001L382.78151999999994,97.14600000000002L383.98512,88.71660000000003L386.42496,95.93639999999999L387.09408,79.75799999999998L388.15488,86.18399999999997L390.19079999999997,79.75799999999998L390.91704000000004,80.4006L394.66656,91.9674L395.56008,85.80599999999998L397.20023999999995,83.31120000000004L397.97544,86.4864L398.71799999999996,82.21500000000003L400.81512,87.69599999999997L401.28432000000004,76.73399999999998L402.83880000000005,94.87799999999999L406.05792,90.9846L407.75928,89.58600000000001L408.59568,80.892L409.43208,81.26999999999998L412.23096,94.5L413.36519999999996,83.53800000000001L415.19712,92.988L416.25791999999996,87.12900000000002L417.68183999999997,86.94L418.93847999999997,85.80599999999998L419.47704,76.923L420.29304,79.75799999999998L421.06416,81.64799999999997L422.49216,82.36619999999999L423.74472000000003,88.22520000000003L425.15232,90.64440000000002L430.13808,95.89859999999999L432.72888,76.54500000000002L433.26336,81.26999999999998L433.806,81.08100000000002L435.3156,94.80240000000003L436.10712,82.971L437.66568,88.37639999999999L438.53472,76.923L439.71792000000005,82.02600000000001L440.24015999999995,77.67900000000003L441.90072000000004,86.56200000000001L443.03904,83.15999999999997L447.31080000000003,80.51400000000001L448.2288,82.63080000000002L449.53440000000006,88.56539999999995L449.92607999999996,81.64799999999997L451.07256,84.14280000000002L452.48016,90.19080000000002L453.17784,83.15999999999997L453.6144,75.97800000000001L454.18152000000003,80.66520000000003L455.09544,82.59300000000002L456.02160000000003,82.74419999999998L456.6948,79.75799999999998L457.64544,80.02260000000001L458.87760000000003,83.27340000000004L459.82824,84.29399999999998L461.52144,83.34899999999999L463.3044,85.9572L464.28768,82.02600000000001L465.04248,82.78199999999998L466.42968,82.02600000000001L467.62512000000004,86.75100000000003L468.7104,82.59300000000002L470.94624,84.10500000000002L471.69288,83.15999999999997L473.62272,80.32499999999999L474.70392,78.81299999999999L475.85856,82.59300000000002L477.97200000000004,82.8954L478.45752,79.19100000000003L479.24904,78.435L480.22823999999997,83.15999999999997L480.91367999999994,80.4384L481.27272,78.435L482.6844,86.22179999999997L483.34536,78.81299999999999L484.7448,89.39699999999999L485.5812,77.52779999999996L488.04552,91.9674L489.0288,79.4556L489.97943999999995,83.15999999999997L491.42376,82.59300000000002L492.46824,80.32499999999999L494.84687999999994,97.63740000000001L495.81383999999997,80.13599999999997L497.9028,89.39699999999999L498.68616,78.62399999999997L499.2084,76.62060000000002L501.4932,80.892L502.1868,75.59999999999997L505.12032000000005,94.72680000000003L505.80576,86.63759999999996L506.27495999999996,79.38L507.15623999999997,78.81299999999999L507.80904000000004,79.75799999999998L509.2452,81.83699999999999L510.06935999999996,81.64799999999997L510.41208,77.11199999999997L511.46064,81.08100000000002L511.9788,79.56900000000002L512.3052,75.411L513.06816,82.59300000000002L513.66384,75.71340000000004L517.38072,94.87799999999999L518.83728,79.75799999999998L520.08984,77.11199999999997L520.72632,79.947L522.94992,82.21500000000003L523.43544,78.24599999999998L524.4228,78.85079999999999L525.2877599999999,78.3594L527.13192,84.82320000000004L527.80512,76.73399999999998L528.61704,81.83699999999999L529.3106399999999,77.49000000000001L529.96344,76.356L530.4612,77.26319999999998L530.79168,75.59999999999997L532.32984,76.54500000000002L532.8480000000001,78.05700000000002L533.5579200000001,83.80259999999998L535.1083199999999,86.18399999999997L536.64648,86.37299999999999L540.30624,86.67539999999997L541.73424,85.995L542.51352,86.18399999999997L543.1908,81.64799999999997L544.25976,82.02600000000001L546.07944,91.28700000000003L546.44664,76.16700000000003L546.8016,75.411L548.01336,82.971L548.89872,78.05700000000002L549.8493599999999,79.30439999999999L550.15536,76.356L550.6939199999999,77.67900000000003L551.70168,81.08100000000002L553.29696,88.67880000000002L554.56992,82.36619999999999L556.27944,88.07400000000001L557.18928,83.72700000000003L557.8788,77.18760000000003L558.80904,80.13599999999997L560.64096,86.07060000000001L561.29376,78.77519999999998L561.7792800000001,75.03300000000002L562.9461600000001,83.68920000000003L563.76216,80.892L564.32928,77.30099999999999L565.0269599999999,78.81299999999999L565.6512,78.77519999999998L566.6508,80.77859999999998L567.54432,80.13599999999997L568.40112,78.85079999999999L570.7716,92.988L571.83648,81.26999999999998L572.75448,80.70300000000003L573.0237599999999,74.46600000000001L574.63944,86.18399999999997L576.24288,94.31100000000004L577.16088,85.995L578.02584,77.67900000000003L579.4416,83.9916L580.14744,79.00200000000001L582.1384800000001,94.5378L582.4812,76.69619999999998L583.644,82.971L584.53752,78.3594L585.35352,78.3594L587.4996,92.26979999999998L588.2992800000001,76.73399999999998L589.01736,80.51400000000001L590.0414400000001,81.26999999999998L591.7428,86.9778L592.7424,82.404L593.80728,88.26300000000003L594.14592,76.16700000000003L597.20184,82.8954L597.65472,77.67900000000003L598.7889600000001,80.51400000000001L599.69472,79.947L601.04928,82.66860000000003L601.46952,76.356L602.66088,81.08100000000002L603.3504,79.947L604.1256,79.00200000000001L604.4316,73.899L605.19048,78.32160000000005L605.56584,77.868L606.66336,80.51400000000001L608.55648,82.404L609.21336,80.892L610.2252,76.923L610.9310399999999,76.12920000000003L612.33456,91.28700000000003L613.34232,82.10159999999996L614.51328,79.00200000000001L615.5904,84.9366L616.53288,80.70300000000003L618.0384,82.404L620.35992,83.12220000000002L621.12696,80.892L622.3468799999999,81.08100000000002L623.40768,88.4142L624.49704,82.10159999999996L625.21512,75.22199999999998L625.73328,76.356L626.78592,81.459L627.46728,79.947L628.05888,81.08100000000002L628.8422400000001,78.62399999999997L630.6864,74.08799999999997L632.63256,78.17039999999997L633.71376,83.916L634.59504,78.24599999999998L637.35312,78.62399999999997L638.25072,84.29399999999998L639.5073600000001,82.36619999999999L641.04552,82.4418L641.56368,76.16700000000003L641.93496,74.27699999999999L642.498,79.38L645.21528,92.08080000000001L645.77016,74.844L647.32056,81.61020000000002L648.14472,84.86099999999999L649.21776,79.49340000000001L650.6743200000001,75.97800000000001L652.0656,83.15999999999997L653.6568,80.892L656.50056,78.3972L657.00648,76.356L659.3647199999999,78.62399999999997L660.3684000000001,80.32499999999999L660.7968,78.05700000000002L661.4088,74.69279999999998L662.4124800000001,85.995L663.71808,74.65500000000003L664.23216,76.923L665.53368,84.06720000000001L666.468,80.4384L667.08408,79.03979999999996L668.12448,82.21500000000003L669.50352,83.08440000000002L670.84584,80.4762L671.9556,77.52779999999996L672.39624,75.03300000000002L672.8328,73.78559999999999L674.13024,86.18399999999997L675.74592,78.62399999999997L677.01888,83.4246L677.61864,79.75799999999998L678.10008,78.24599999999998L679.32408,82.8954L680.4012,80.32499999999999L680.8132800000001,75.78899999999999L681.5436,81.83699999999999L682.71048,82.404L683.2368,76.54500000000002L684.62808,85.80599999999998L685.9092,77.64120000000003L686.71704,77.60340000000002L687.24336,75.97800000000001L688.52856,81.459L689.68728,82.8954L690.4420799999999,79.15320000000003L691.12752,79.68239999999997L691.62936,75.411L694.66488,89.39699999999999L696.15,82.78199999999998L697.23528,77.868L698.32872,73.52100000000002L698.8836,78.54840000000002L699.8791200000001,79.60680000000002L700.36872,75.22199999999998L701.11536,76.20479999999998L701.51112,75.03300000000002L701.82528,74.46600000000001L702.46176,76.73399999999998L703.02888,75.97800000000001L703.64496,76.54500000000002L705.25656,84.10500000000002L705.88896,74.46600000000001L706.66416,76.356L709.16112,87.31799999999998L710.33208,78.8886L712.65768,78.54840000000002L715.3504800000001,74.46600000000001L715.80336,75.03300000000002L716.4888,76.73399999999998L717.68016,82.17720000000003L718.5084,80.892L719.17344,78.62399999999997L719.89152,76.99860000000001L720.1363200000001,73.332L721.04208,77.30099999999999L722.5639199999999,84.86099999999999L723.0331199999999,76.16700000000003L724.3632,78.62399999999997L725.0772000000001,77.868L725.49744,76.73399999999998L726.3501600000001,78.62399999999997L727.08048,76.16700000000003L727.98216,78.3594L728.26368,72.57599999999996L729.18576,73.52100000000002L730.08336,77.30099999999999L731.10744,81.459L731.53992,74.46600000000001L735.46488,74.12580000000003L736.72152,76.50720000000001L738.49224,80.892L738.88392,75.03300000000002L739.4387999999999,78.62399999999997L740.5689600000001,85.61700000000002L741.29112,79.19100000000003L742.12752,77.75459999999998L743.56368,85.23900000000003L744.5673599999999,79.03979999999996L745.11,75.22199999999998L746.2524000000001,82.21500000000003L746.8929599999999,76.8474L747.7823999999999,75.411L748.1373600000001,75.52440000000001L749.0023199999999,82.78199999999998L749.41032,77.868L749.8019999999999,75.03300000000002L751.7440799999999,78.05700000000002L752.29896,79.64460000000003L755.60376,98.469L757.31328,80.70300000000003L758.18232,78.24599999999998L759.45528,82.02600000000001L759.90408,75.59999999999997L761.0260800000001,75.78899999999999L762.0052800000001,79.26659999999998L762.98856,83.53800000000001L764.47776,80.51400000000001L765.612,81.64799999999997L766.37496,80.13599999999997L767.3827200000001,75.52440000000001L767.7458399999999,74.27699999999999L768.55368,76.73399999999998L769.08408,76.16700000000003L769.7287200000001,76.16700000000003L770.51616,80.51400000000001L771.44232,78.435L771.80544,73.332L772.6948799999999,75.63779999999997L773.2783199999999,76.73399999999998L774.45744,75.411L775.8731999999999,79.03979999999996L777.24408,79.9092L778.55376,83.53800000000001L778.9699200000001,75.48660000000001L779.4962400000001,75.78899999999999L779.99808,75.22199999999998L780.52848,77.30099999999999L782.11152,89.39699999999999L783.7598399999999,84.9366L784.3759200000001,75.411L785.86104,81.26999999999998L786.8810400000001,77.67900000000003L787.7052,80.4384L788.73336,75.59999999999997L790.08792,88.75439999999998L790.68768,75.03300000000002L791.78112,84.02940000000001L793.00512,83.34899999999999L793.9598399999999,83.72700000000003L794.35152,73.332L795.31848,79.19100000000003L796.15488,81.11880000000002L797.1299999999999,83.34899999999999L797.36256,73.97460000000001L798.8844,80.74079999999998L800.2103999999999,79.75799999999998L801.2711999999999,82.55520000000001L802.08312,78.73740000000004L802.55232,74.65500000000003L803.9925599999999,80.51400000000001L805.0492800000001,79.75799999999998L805.8122400000001,76.923L807.3748800000001,84.4452L807.9501600000001,75.14639999999997L808.89672,76.923L810.0228000000001,73.52100000000002L813.3928800000001,76.58280000000002L814.27008,78.09480000000002L815.3594400000001,78.62399999999997L815.88168,75.63779999999997L817.52184,80.892L818.61936,82.63080000000002L819.5088000000001,87.4314L820.25136,76.8474L821.61408,76.356L824.18448,80.24940000000004L824.70672,74.27699999999999L824.90664,72.76499999999999L825.57576,75.97800000000001L826.5957599999999,79.00200000000001L827.9625599999999,79.26659999999998L828.43992,74.844L829.2885600000001,74.27699999999999L830.03928,80.66520000000003L831.0959999999999,77.26319999999998L832.39752,86.29739999999998L833.1604799999999,76.62060000000002L833.71128,73.97460000000001L834.1967999999999,76.356L834.88632,78.32160000000005L835.65336,77.22540000000004L836.7345599999999,81.08100000000002L837.2527200000001,73.332L838.35432,82.78199999999998L838.9091999999999,73.70999999999998L840.2148,78.62399999999997L841.57344,77.75459999999998L842.4792,76.923L845.1312,82.81979999999999L846.3878400000001,80.66520000000003L847.38336,79.00200000000001L847.5383999999999,72.00900000000001L848.26872,77.67900000000003L848.9256,77.30099999999999L849.74568,75.97800000000001L850.73712,78.24599999999998L851.39808,81.26999999999998L852.3364799999999,77.49000000000001L853.2708,78.13260000000002L854.60496,96.38999999999999L855.97584,79.38L856.40016,73.4454L857.38752,75.22199999999998L857.73432,73.67219999999998L858.79104,77.07419999999996L859.0072799999999,72.19799999999998L859.6886400000001,75.411L860.4475199999999,75.75119999999998L860.7984,73.332L861.05952,72.76499999999999L862.5201599999999,85.3902L863.18928,76.8852L864.62952,83.65140000000002L865.9106400000001,78.85079999999999L866.17584,72.387L867.5916000000001,78.28379999999999L868.9216799999999,78.9642L869.68464,77.56560000000002L870.51696,73.899L871.67976,84.483L872.61408,82.59300000000002L873.4137599999999,80.3628L874.00944,77.67900000000003L875.0784,82.13940000000002L876.5064,75.411L879.73368,82.971L881.16168,74.65500000000003L881.6553600000001,75.03300000000002L882.38976,75.82679999999999L882.8140800000001,76.923L884.18904,80.66520000000003L884.96424,75.78899999999999L886.85328,83.08440000000002L887.9712,85.428L888.522,77.11199999999997L889.1544000000001,76.923L889.5624,74.54160000000002L890.68848,76.9608L892.09608,84.10500000000002L893.55264,80.09820000000002L895.0092000000001,76.05360000000002L895.8455999999999,76.99860000000001L896.19648,75.18419999999998L897.6530399999999,75.4488L898.4771999999999,78.51060000000001L899.2524,79.30439999999999L900.5620799999999,76.62060000000002L900.94152,72.8784L902.2022400000001,81.57240000000002L902.85096,74.65500000000003L903.59352,82.21500000000003L904.0627199999999,79.00200000000001L905.4988800000001,79.79579999999999L905.9395200000001,75.03300000000002L906.81264,77.83019999999999L907.46136,74.08799999999997L907.97136,74.844L909.50952,83.23559999999998L909.9787200000001,77.11199999999997L910.53768,76.20479999999998L911.56584,75.9402L912.9612000000001,80.06040000000002L913.61808,75.03300000000002L914.4911999999999,79.947L916.3761599999999,83.08440000000002L917.2370400000001,76.65839999999997L919.1424,80.4762L920.2236,77.868L920.76216,76.46940000000001L921.21096,74.9574L921.8188799999999,75.411L924.49536,73.14300000000003L924.8625599999999,76.73399999999998L926.37624,84.9366L927.3432,80.51400000000001L927.80424,73.52100000000002L928.2204,72.76499999999999L929.19144,79.19100000000003L929.70552,76.16700000000003L930.342,76.80960000000005L932.0719200000001,75.63779999999997L932.44728,73.899L933.8793599999999,76.28039999999999L934.2588,72.387L935.65008,77.60340000000002L936.1152,74.844L936.7353599999999,71.82L937.2984,75.78899999999999L937.93488,83.04660000000001L938.59176,74.08799999999997L938.75904,72.76499999999999L939.43632,77.03640000000001L940.57464,79.8714L941.0928,76.09140000000002L941.9332800000001,78.69960000000003L942.3045599999999,73.332L942.7044000000001,75.29759999999999L944.3771999999999,76.24259999999998L944.8708799999999,74.844L945.2544,74.8818L945.8051999999999,73.332L946.2784800000001,77.67900000000003L946.80888,75.03300000000002L947.22096,73.14300000000003L947.7432,78.81299999999999L948.49392,76.16700000000003L949.35072,80.55179999999996L949.65264,75.97800000000001L949.95048,72.95400000000001L950.91336,83.31120000000004L952.6106400000001,96.5412L953.3205600000001,76.54500000000002L954.1487999999999,75.78899999999999L955.0015199999999,77.4522L955.62168,74.65500000000003L956.148,74.20140000000004L956.5723200000001,73.63439999999997L957.4739999999999,80.24940000000004L958.43688,78.62399999999997L959.0896799999999,75.59999999999997L962.2884,81.72359999999998L962.60256,72.387L962.8392,75.411L963.1125599999999,72.19799999999998L966.40512,92.83680000000004L967.04976,75.78899999999999L967.4904,75.97800000000001L968.4206399999999,76.356L970.79112,75.59999999999997L971.21544,74.844L973.01064,80.9298L973.51656,75.25980000000004L974.4672,77.49000000000001L974.89968,78.05700000000002L975.5688,76.01579999999996L976.23792,75.07080000000002L977.9025599999999,85.23900000000003L978.7512,75.03300000000002L979.52232,76.73399999999998L979.78344,73.14300000000003L980.91768,81.72359999999998L981.41952,72.57599999999996L984.38976,103.72320000000002L985.17312,77.33879999999999L986.47056,77.3766L986.88672,74.46600000000001L987.4416,78.81299999999999L990.61584,101.15279999999996L991.5868800000001,82.63080000000002L992.6232,75.78899999999999L993.684,76.54500000000002L994.25928,74.50380000000001L994.6142400000001,72.57599999999996L995.43432,83.3868L996.03816,74.54160000000002L997.09896,79.60680000000002L997.99656,79.56900000000002L999.06552,75.67560000000003L999.9141599999999,77.71679999999998L1001.19528,73.18079999999998L1001.69712,74.844L1002.7130400000001,77.26319999999998L1003.5168,75.411L1005.3079200000001,76.54500000000002L1006.2830399999999,81.04320000000001L1006.8909600000001,75.59999999999997L1007.28672,73.899L1008.60048,80.28719999999998L1009.3797599999999,79.4556L1011.1953599999999,75.10859999999997L1013.7902399999999,80.9298L1014.47568,72.95400000000001L1015.01832,73.70999999999998L1015.6833600000001,80.13599999999997L1017.47856,90.15300000000002L1019.40024,76.9608L1019.94288,75.82679999999999L1020.7955999999999,82.85759999999999L1022.0889599999999,84.52080000000001L1022.7948,78.24599999999998L1023.94128,74.76839999999999L1024.95312,80.85419999999999L1028.97192,77.9436L1029.35544,73.14300000000003L1031.6688000000001,82.51740000000001L1033.61496,81.76140000000004L1034.9736,82.85759999999999L1036.04256,78.69960000000003L1037.93568,85.61700000000002L1039.51056,80.9298L1041.24864,80.4762L1042.71336,79.53120000000001L1043.4396,75.411L1044.5534400000001,75.48660000000001L1046.2425600000001,77.9058L1046.54448,73.14300000000003L1047.45024,78.435L1047.65016,72.27359999999999L1048.26624,73.70999999999998L1051.08144,92.83680000000004L1052.5053599999999,81.83699999999999L1055.1736799999999,97.14600000000002L1057.06272,84.25619999999998L1058.76816,83.15999999999997L1060.07784,89.66159999999996L1061.004,76.77179999999998L1061.75064,74.4282L1062.73392,75.3732L1063.758,77.49000000000001L1064.93712,74.99520000000001L1066.90776,77.67900000000003L1067.94816,79.9092L1070.31048,90.90899999999999L1071.48552,80.4762L1071.99144,73.8612L1072.66464,80.70300000000003L1073.81928,73.21859999999998L1074.72504,76.09140000000002L1077.35664,89.85059999999999L1077.8136,73.06740000000002L1079.3558400000002,76.62060000000002L1079.78424,74.01240000000001L1080.71856,73.14300000000003L1081.73448,77.07419999999996L1082.2608,74.61720000000003L1082.70144,73.899L1084.05192,73.52100000000002L1084.90872,76.09140000000002L1086.3816,83.3868L1087.23432,77.14979999999997L1087.9932000000001,74.65500000000003L1088.748,77.33879999999999L1091.45304,81.9504L1097.63832,171.64979999999997L1099.38456,74.8818L1104.1704,128.51999999999998L1105.10472,72.57599999999996L1105.77792,75.22199999999998L1107.14064,82.29059999999998L1108.3932,78.66179999999997L1111.56744,82.36619999999999L1111.9632000000001,73.55880000000002L1112.33856,74.05019999999996L1114.91712,88.90559999999999L1117.61808,111.32099999999997L1118.22192,73.55880000000002L1119.0012,73.29419999999999L1121.42064,95.36939999999998L1122.98736,79.68239999999997L1123.77888,75.3732L1124.3419199999998,73.332L1125.91272,74.12580000000003L1126.5288,74.46600000000001L1127.60592,76.77179999999998L1128.2383200000002,74.46600000000001L1128.94824,73.52100000000002L1129.35624,72.80279999999999L1131.0576,79.53120000000001L1131.92256,76.24259999999998L1134.1910400000002,84.8988L1134.80712,74.54160000000002L1135.7618400000001,79.9848L1136.82264,77.9436L1137.78144,80.77859999999998L1138.11192,73.52100000000002L1139.29512,84.63420000000002L1139.60112,73.3698L1140.47424,75.67560000000003L1141.9675200000001,75.82679999999999L1145.21928,108.14580000000001L1146.13728,75.9402L1148.02632,79.4178L1148.9810400000001,77.03640000000001L1149.93168,75.56219999999996L1150.2662400000002,72.387L1152.95496,101.87099999999998L1154.06472,74.50380000000001L1154.57472,74.69279999999998L1156.54128,83.68920000000003L1157.7244799999999,75.22199999999998L1158.40176,73.70999999999998L1158.924,75.411L1159.51152,73.14300000000003L1161.9228,92.988L1164.97056,97.22159999999997L1165.78248,74.54160000000002L1167.38592,83.34899999999999L1168.97304,97.67519999999996L1170.91104,97.59960000000001L1171.42512,73.55880000000002L1172.40024,75.03300000000002L1173.64464,74.08799999999997L1174.55448,80.55179999999996L1176.43536,76.3938L1176.9739200000001,80.13599999999997L1178.19384,76.54500000000002L1178.72424,75.22199999999998L1179.38928,76.80960000000005L1180.0053599999999,74.16360000000003L1182.6328800000001,85.9194L1183.75896,74.99520000000001L1184.97072,88.56539999999995L1188.52032,125.91179999999997L1190.61744,74.12580000000003L1192.40856,85.12559999999996L1192.77168,74.05019999999996L1194.83616,100.4724L1196.12952,74.65500000000003L1197.03936,79.15320000000003L1197.87576,73.4454L1198.8141600000001,74.76839999999999L1199.1732,73.70999999999998L1199.9932800000001,73.899L1201.65384,81.61020000000002L1202.10672,73.332L1203.04104,75.29759999999999L1203.5592000000001,75.78899999999999L1204.31808,74.12580000000003L1205.26872,74.12580000000003L1209.2916,102.62700000000001L1210.0872000000002,76.65839999999997L1211.9803200000001,85.20120000000003L1214.208,86.78880000000004L1216.0439999999999,80.81639999999999L1216.84776,73.63439999999997L1217.80248,74.80619999999999L1221.95184,110.94299999999998L1223.08608,75.10859999999997L1223.62464,77.67900000000003L1224.0612,74.46600000000001L1225.33416,77.4144L1226.68464,79.4178L1226.9988,72.95400000000001L1227.7862400000001,77.18760000000003L1229.21424,75.3732L1230.97272,77.49000000000001L1232.39256,72.00900000000001L1233.24528,76.58280000000002L1234.74672,81.68579999999997L1236.07272,80.13599999999997L1238.24328,100.5858L1238.80224,72.00900000000001L1240.3812,81.64799999999997L1240.92792,72.76499999999999L1241.9071199999998,77.868L1242.27024,71.82L1244.00832,82.51740000000001L1247.83944,77.83019999999999L1249.4428799999998,84.82320000000004L1250.4832800000001,77.22540000000004L1251.03,73.70999999999998L1251.8052,73.48320000000001L1252.75584,79.19100000000003L1253.3311199999998,78.81299999999999L1253.59224,72.46260000000001L1254.12264,73.02960000000002L1256.04432,102.62700000000001L1258.0068,112.0392L1258.48008,78.13260000000002L1259.4144,76.58280000000002L1259.85912,72.46260000000001L1261.92768,101.0016L1262.97216,74.61720000000003L1263.68208,77.30099999999999L1265.2284,77.64120000000003L1265.85264,73.74780000000004L1266.50952,73.332L1268.4516,86.14620000000002L1269.3369599999999,74.3526L1269.6552000000001,75.59999999999997L1270.00608,72.19799999999998L1270.78536,74.46600000000001L1272.1888800000002,78.9264L1273.6821599999998,75.48660000000001L1274.38392,72.57599999999996L1274.9184,72.95400000000001L1276.31784,86.71320000000003L1278.0273599999998,80.09820000000002L1279.8307200000002,103.91219999999998L1283.60472,124.55100000000002L1286.22816,82.404L1286.95848,72.72719999999998L1287.43992,72.19799999999998L1288.65576,78.77519999999998L1290.47544,72.76499999999999L1290.69168,71.63100000000003L1291.7524799999999,78.3594L1292.0217599999999,72.50040000000001L1292.4828,72.19799999999998L1292.70312,72.387L1293.72312,92.91239999999999L1295.27352,85.12559999999996L1298.6436,154.1484L1300.07568,87.4314L1304.51064,74.69279999999998L1305.60408,73.29419999999999L1306.02432,73.4454L1308.2846399999999,76.8474L1308.74568,75.29759999999999L1310.43888,79.19100000000003L1310.84688,72.387L1311.88728,81.08100000000002L1312.52784,74.27699999999999L1313.49888,76.58280000000002L1313.77632,72.00900000000001L1314.2373599999999,74.16360000000003L1314.9024,74.73059999999998L1316.46504,90.4554L1317.636,74.61720000000003L1318.3296,75.71340000000004L1322.68704,218.5596L1323.92328,79.22879999999998L1324.45368,72.00900000000001L1325.01672,72.72719999999998L1326.58344,84.67199999999997L1332.49944,84.21839999999997L1333.51536,80.24940000000004L1337.98704,183.10320000000002L1338.60312,77.71679999999998L1344.78432,245.3598L1346.17152,88.67880000000002L1347.92184,80.4006L1351.36944,144.207L1352.40984,74.16360000000003L1353.73584,79.56900000000002L1360.51272,326.1384L1361.52456,73.52100000000002L1362.44256,82.74419999999998L1363.4748,78.17039999999997L1364.56824,73.14300000000003L1365.4372799999999,80.17379999999997" style="fill: none;" fill="none"></path></g></g></g></g></g></g><g transform="translate(70, 378)" clip-path="url(#clip_1)"><clipPath id="clip_1"><rect width="1428" height="22"></rect></clipPath><g><g><line x1="0" y1="0" x2="0" y2="5" style="visibility: inherit;" fill="rgb(0, 0, 0)" stroke="rgb(204, 204, 204)" stroke-width="1px"></line><line x1="204" y1="0" x2="204" y2="5" style="visibility: inherit;" fill="rgb(0, 0, 0)" stroke="rgb(204, 204, 204)" stroke-width="1px"></line><line x1="408" y1="0" x2="408" y2="5" style="visibility: inherit;" fill="rgb(0, 0, 0)" stroke="rgb(204, 204, 204)" stroke-width="1px"></line><line x1="612" y1="0" x2="612" y2="5" style="visibility: inherit;" fill="rgb(0, 0, 0)" stroke="rgb(204, 204, 204)" stroke-width="1px"></line><line x1="816" y1="0" x2="816" y2="5" style="visibility: inherit;" fill="rgb(0, 0, 0)" stroke="rgb(204, 204, 204)" stroke-width="1px"></line><line x1="1020" y1="0" x2="1020" y2="5" style="visibility: inherit;" fill="rgb(0, 0, 0)" stroke="rgb(204, 204, 204)" stroke-width="1px"></line><line x1="1224" y1="0" x2="1224" y2="5" style="visibility: inherit;" fill="rgb(0, 0, 0)" stroke="rgb(204, 204, 204)" stroke-width="1px"></line><line x1="1428" y1="0" x2="1428" y2="5" style="visibility: inherit;" fill="rgb(0, 0, 0)" stroke="rgb(204, 204, 204)" stroke-width="1px"></line></g><g transform="translate(0, 8)"><text x="0" y="0" dx="0em" dy="0.95em" style="text-anchor: middle; visibility: hidden; font-family: &quot;Helvetica Neue&quot;, sans-serif; font-size: 12px; font-weight: 200;" fill="rgb(50, 49, 63)" stroke="none" stroke-width="1px">-50k</text><text x="204" y="0" dx="0em" dy="0.95em" style="text-anchor: middle; visibility: inherit; font-family: &quot;Helvetica Neue&quot;, sans-serif; font-size: 12px; font-weight: 200;" fill="rgb(50, 49, 63)" stroke="none" stroke-width="1px">0</text><text x="408" y="0" dx="0em" dy="0.95em" style="text-anchor: middle; visibility: inherit; font-family: &quot;Helvetica Neue&quot;, sans-serif; font-size: 12px; font-weight: 200;" fill="rgb(50, 49, 63)" stroke="none" stroke-width="1px">50k</text><text x="612" y="0" dx="0em" dy="0.95em" style="text-anchor: middle; visibility: inherit; font-family: &quot;Helvetica Neue&quot;, sans-serif; font-size: 12px; font-weight: 200;" fill="rgb(50, 49, 63)" stroke="none" stroke-width="1px">100k</text><text x="816" y="0" dx="0em" dy="0.95em" style="text-anchor: middle; visibility: inherit; font-family: &quot;Helvetica Neue&quot;, sans-serif; font-size: 12px; font-weight: 200;" fill="rgb(50, 49, 63)" stroke="none" stroke-width="1px">150k</text><text x="1020" y="0" dx="0em" dy="0.95em" style="text-anchor: middle; visibility: inherit; font-family: &quot;Helvetica Neue&quot;, sans-serif; font-size: 12px; font-weight: 200;" fill="rgb(50, 49, 63)" stroke="none" stroke-width="1px">200k</text><text x="1224" y="0" dx="0em" dy="0.95em" style="text-anchor: middle; visibility: inherit; font-family: &quot;Helvetica Neue&quot;, sans-serif; font-size: 12px; font-weight: 200;" fill="rgb(50, 49, 63)" stroke="none" stroke-width="1px">250k</text><text x="1428" y="0" dx="0em" dy="0.95em" style="text-anchor: middle; visibility: hidden; font-family: &quot;Helvetica Neue&quot;, sans-serif; font-size: 12px; font-weight: 200;" fill="rgb(50, 49, 63)" stroke="none" stroke-width="1px">300k</text></g><line x1="0" y1="0" x2="1428" y2="0" fill="rgb(0, 0, 0)" stroke="rgb(204, 204, 204)" stroke-width="1px"></line></g></g></g></g></svg>