<svg viewBox="0 0 1498 400" xmlns="http://www.w3.org/2000/svg"><g><g><g><g><g><line x1="70" y1="378" x2="65" y2="378" style="visibility: inherit;" fill="rgb(0, 0, 0)" stroke="rgb(204, 204, 204)" stroke-width="1px"></line><line x1="70" y1="336" x2="65" y2="336" style="visibility: inherit;" fill="rgb(0, 0, 0)" stroke="rgb(204, 204, 204)" stroke-width="1px"></line><line x1="70" y1="294" x2="65" y2="294" style="visibility: inherit;" fill="rgb(0, 0, 0)" stroke="rgb(204, 204, 204)" stroke-width="1px"></line><line x1="70" y1="252" x2="65" y2="252" style="visibility: inherit;" fill="rgb(0, 0, 0)" stroke="rgb(204, 204, 204)" stroke-width="1px"></line><line x1="70" y1="210" x2="65" y2="210" style="visibility: inherit;" fill="rgb(0, 0, 0)" stroke="rgb(204, 204, 204)" stroke-width="1px"></line><line x1="70" y1="168" x2="65" y2="168" style="visibility: inherit;" fill="rgb(0, 0, 0)" stroke="rgb(204, 204, 204)" stroke-width="1px"></line><line x1="70" y1="126" x2="65" y2="126" style="visibility: inherit;" fill="rgb(0, 0, 0)" stroke="rgb(204, 204, 204)" stroke-width="1px"></line><line x1="70" y1="84" x2="65" y2="84" style="visibility: inherit;" fill="rgb(0, 0, 0)" stroke="rgb(204, 204, 204)" stroke-width="1px"></line><line x1="70" y1="42" x2="65" y2="42" style="visibility: inherit;" fill="rgb(0, 0, 0)" stroke="rgb(204, 204, 204)" stroke-width="1px"></line><line x1="70" y1="0" x2="65" y2="0" style="visibility: inherit;" fill="rgb(0, 0, 0)" stroke="rgb(204, 204, 204)" stroke-width="1px"></line></g><g transform="translate(60, 0)"><text x="0" y="378" dx="0em" dy="0.3em" style="text-anchor: end; visibility: hidden; font-family: &quot;Helvetica Neue&quot;, sans-serif; font-size: 12px; font-weight: 200;" fill="rgb(50, 49, 63)" stroke="none" stroke-width="1px">-7e+3</text><text x="0" y="336" dx="0em" dy="0.3em" style="text-anchor: end; visibility: inherit; font-family: &quot;Helvetica Neue&quot;, sans-serif; font-size: 12px; font-weight: 200;" fill="rgb(50, 49, 63)" stroke="none" stroke-width="1px">-6e+3</text><text x="0" y="294" dx="0em" dy="0.3em" style="text-anchor: end; visibility: inherit; font-family: &quot;Helvetica Neue&quot;, sans-serif; font-size: 12px; font-weight: 200;" fill="rgb(50, 49, 63)" stroke="none" stroke-width="1px">-5e+3</text><text x="0" y="252" dx="0em" dy="0.3em" style="text-anchor: end; visibility: inherit; font-family: &quot;Helvetica Neue&quot;, sans-serif; font-size: 12px; font-weight: 200;" fill="rgb(50, 49, 63)" stroke="none" stroke-width="1px">-4e+3</text><text x="0" y="210" dx="0em" dy="0.3em" style="text-anchor: end; visibility: inherit; font-family: &quot;Helvetica Neue&quot;, sans-serif; font-size: 12px; font-weight: 200;" fill="rgb(50, 49, 63)" stroke="none" stroke-width="1px">-3e+3</text><text x="0" y="168" dx="0em" dy="0.3em" style="text-anchor: end; visibility: inherit; font-family: &quot;Helvetica Neue&quot;, sans-serif; font-size: 12px; font-weight: 200;" fill="rgb(50, 49, 63)" stroke="none" stroke-width="1px">-2e+3</text><text x="0" y="126" dx="0em" dy="0.3em" style="text-anchor: end; visibility: inherit; font-family: &quot;Helvetica Neue&quot;, sans-serif; font-size: 12px; font-weight: 200;" fill="rgb(50, 49, 63)" stroke="none" stroke-width="1px">-1e+3</text><text x="0" y="84" dx="0em" dy="0.3em" style="text-anchor: end; visibility: inherit; font-family: &quot;Helvetica Neue&quot;, sans-serif; font-size: 12px; font-weight: 200;" fill="rgb(50, 49, 63)" stroke="none" stroke-width="1px">0</text><text x="0" y="42" dx="0em" dy="0.3em" style="text-anchor: end; visibility: inherit; font-family: &quot;Helvetica Neue&quot;, sans-serif; font-size: 12px; font-weight: 200;" fill="rgb(50, 49, 63)" stroke="none" stroke-width="1px">1e+3</text><text x="0" y="0" dx="0em" dy="0.3em" style="text-anchor: end; visibility: hidden; font-family: &quot;Helvetica Neue&quot;, sans-serif; font-size: 12px; font-weight: 200;" fill="rgb(50, 49, 63)" stroke="none" stroke-width="1px">2e+3</text></g><line x1="70" y1="0" x2="70" y2="378" fill="rgb(0, 0, 0)" stroke="rgb(204, 204, 204)" stroke-width="1px"></line></g></g><g transform="translate(70, 0)" clip-path="url(#clip_0)"><clipPath id="clip_0"><rect width="1428" height="378"></rect></clipPath><g><g><g><line x1="0" y1="0" x2="0" y2="378" fill="rgb(0, 0, 0)" stroke="rgb(60, 60, 60)" stroke-width="1px" opacity="0.25"></line><line x1="158.66666666666666" y1="0" x2="158.66666666666666" y2="378" fill="rgb(0, 0, 0)" stroke="rgb(60, 60, 60)" stroke-width="1px" opacity="0.25"></line><line x1="317.3333333333333" y1="0" x2="317.3333333333333" y2="378" fill="rgb(0, 0, 0)" stroke="rgb(60, 60, 60)" stroke-width="1px" opacity="0.25"></line><line x1="476" y1="0" x2="476" y2="378" fill="rgb(0, 0, 0)" stroke="rgb(60, 60, 60)" stroke-width="1px" opacity="0.25"></line><line x1="634.6666666666666" y1="0" x2="634.6666666666666" y2="378" fill="rgb(0, 0, 0)" stroke="rgb(60, 60, 60)" stroke-width="1px" opacity="0.25"></line><line x1="793.3333333333334" y1="0" x2="793.3333333333334" y2="378" fill="rgb(0, 0, 0)" stroke="rgb(60, 60, 60)" stroke-width="1px" opacity="0.25"></line><line x1="952" y1="0" x2="952" y2="378" fill="rgb(0, 0, 0)" stroke="rgb(60, 60, 60)" stroke-width="1px" opacity="0.25"></line><line x1="1110.6666666666667" y1="0" x2="1110.6666666666667" y2="378" fill="rgb(0, 0, 0)" stroke="rgb(60, 60, 60)" stroke-width="1px" opacity="0.25"></line><line x1="1269.3333333333333" y1="0" x2="1269.3333333333333" y2="378" fill="rgb(0, 0, 0)" stroke="rgb(60, 60, 60)" stroke-width="1px" opacity="0.25"></line><line x1="1428" y1="0" x2="1428" y2="378" fill="rgb(0, 0, 0)" stroke="rgb(60, 60, 60)" stroke-width="1px" opacity="0.25"></line></g><g><line x1="0" y1="378" x2="1428" y2="378" fill="rgb(0, 0, 0)" stroke="rgb(60, 60, 60)" stroke-width="1px" opacity="0.25"></line><line x1="0" y1="336" x2="1428" y2="336" fill="rgb(0, 0, 0)" stroke="rgb(60, 60, 60)" stroke-width="1px" opacity="0.25"></line><line x1="0" y1="294" x2="1428" y2="294" fill="rgb(0, 0, 0)" stroke="rgb(60, 60, 60)" stroke-width="1px" opacity="0.25"></line><line x1="0" y1="252" x2="1428" y2="252" fill="rgb(0, 0, 0)" stroke="rgb(60, 60, 60)" stroke-width="1px" opacity="0.25"></line><line x1="0" y1="210" x2="1428" y2="210" fill="rgb(0, 0, 0)" stroke="rgb(60, 60, 60)" stroke-width="1px" opacity="0.25"></line><line x1="0" y1="168" x2="1428" y2="168" fill="rgb(0, 0, 0)" stroke="rgb(60, 60, 60)" stroke-width="1px" opacity="0.25"></line><line x1="0" y1="126" x2="1428" y2="126" fill="rgb(0, 0, 0)" stroke="rgb(60, 60, 60)" stroke-width="1px" opacity="0.25"></line><line x1="0" y1="84" x2="1428" y2="84" fill="rgb(0, 0, 0)" stroke="rgb(60, 60, 60)" stroke-width="1px" opacity="0.25"></line><line x1="0" y1="42" x2="1428" y2="42" fill="rgb(0, 0, 0)" stroke="rgb(60, 60, 60)" stroke-width="1px" opacity="0.25"></line><line x1="0" y1="0" x2="1428" y2="0" fill="rgb(0, 0, 0)" stroke="rgb(60, 60, 60)" stroke-width="1px" opacity="0.25"></line></g></g></g><g><g><line x1="0" y1="84" x2="1428" y2="84" fill="rgb(0, 0, 0)" stroke="rgb(153, 153, 153)" stroke-width="1.5px"></line></g></g><g><g><line x1="158.66666666666666" y1="0" x2="158.66666666666666" y2="378" fill="rgb(0, 0, 0)" stroke="rgb(153, 153, 153)" stroke-width="1.5px"></line></g></g><g><g><g><g><g><path stroke="rgb(0, 119, 187)" stroke-width="2px" d="M159.81224,96.43199999999996L160.83722666666668,94.79399999999998L161.88442666666668,95.08799999999997L163.14424,97.90199999999999L163.88045333333335,90.97200000000004L164.03277333333335,83.24399999999997L164.78485333333333,91.18200000000002L165.5528,91.392L166.73010666666667,96.81L167.72336,94.37400000000002L168.34216,89.418L169.09741333333332,91.22399999999999L169.91296,92.02199999999999L170.73168,92.06399999999996L171.87090666666666,96.30599999999998L174.64440000000002,117.93600000000004L176.01210666666665,99.32999999999998L176.61821333333333,89.25L177.07834666666668,87.31799999999998L177.35760000000002,84.92399999999998L178.47144,95.97000000000003L179.50277333333332,94.87799999999999L181.21320000000003,103.86599999999999L182.15250666666665,93.65999999999997L183.57098666666667,100.00200000000001L184.11045333333334,88.368L184.6404,88.24200000000002L185.08784,87.14999999999998L185.77010666666666,90.25799999999998L186.79509333333334,94.79399999999998L187.6868,93.02999999999997L188.79112,95.844L189.83514666666665,95.04599999999999L190.46981333333335,89.62800000000004L192.9196266666667,113.65199999999999L193.97634666666667,95.214L195.02354666666668,95.08799999999997L195.55666666666667,88.28399999999999L195.95016,86.43599999999998L196.68320000000003,90.93L198.1651466666667,100.84199999999998L199.47256,98.53200000000004L200.43090666666666,93.91200000000003L201.26232000000002,92.23199999999997L201.85255999999998,89.03999999999996L203.15045333333336,98.406L203.54077333333333,86.394L204.64509333333336,95.844L205.31149333333332,90.048L206.15877333333333,92.44200000000001L206.44437333333332,85.00800000000004L206.9648,88.11600000000004L207.2726133333333,85.30200000000002L207.84698666666665,88.82999999999998L208.89736000000002,95.13L209.62405333333336,90.846L211.24562666666668,102.69L211.67085333333333,86.856L212.13098666666667,87.31799999999998L212.9211466666667,91.68599999999998L214.39357333333334,100.71600000000001L215.67242666666667,98.154L216.03418666666667,86.01599999999996L216.74818666666667,90.678L218.00165333333334,97.81799999999998L218.62997333333334,89.54400000000004L219.15991999999997,88.24200000000002L220.37848,97.356L221.27970666666667,93.156L222.45701333333332,96.81L223.76760000000002,98.57400000000001L224.29437333333334,88.19999999999999L224.93856,89.75400000000002L225.66208,90.80399999999997L227.60733333333332,106.97399999999999L228.41018666666665,91.85399999999998L230.45381333333336,108.27599999999995L231.24397333333334,91.68599999999998L232.58946666666668,99.036L233.33837333333335,91.14000000000004L234.12218666666666,91.60199999999998L235.00437333333332,92.904L237.02261333333334,107.94L238.11106666666666,95.63400000000001L238.43474666666665,85.512L239.64061333333333,97.18799999999999L240.97658666666666,98.91000000000003L242.06503999999998,95.63400000000001L242.64258666666666,88.87200000000001L243.94682666666665,98.49000000000001L244.6703466666667,90.80399999999997L245.8476533333333,96.81L247.11064,97.94399999999996L247.65328000000002,88.41000000000003L248.59258666666668,93.65999999999997L249.43034666666668,92.31600000000003L251.22010666666665,104.916L252.6132,99.666L253.25421333333333,89.71199999999999L254.59336000000002,98.952L255.25024,89.92200000000003L257.45888,110.46000000000004L257.93487999999996,87.52799999999996L259.27402666666666,98.952L259.9436,90.08999999999997L261.15898666666664,97.31400000000002L263.1328,107.35200000000003L264.91304,104.79000000000002L265.66829333333334,91.22399999999999L267.5056533333333,105.54599999999999L271.8943733333333,139.314L273.83328,106.88999999999999L275.12800000000004,98.36400000000003L276.27357333333333,96.38999999999999L277.9617866666667,103.572L279.16765333333336,97.18799999999999L280.4084266666667,97.64999999999998L284.18469333333337,131.20800000000003L285.47624,98.322L288.5924533333333,122.47199999999998L290.29018666666667,103.69799999999998L291.98474666666664,103.656L293.45082666666667,100.632L296.5956,122.85L298.21082666666666,102.606L298.75029333333333,88.368L299.73720000000003,94.29000000000002L302.38058666666666,116.214L303.93869333333333,101.85000000000002L305.36034666666666,100.04400000000004L306.14098666666666,91.56L307.9117066666667,104.66399999999999L309.8315733333333,106.63799999999998L310.64394666666664,91.97999999999996L313.27781333333337,116.08800000000002L314.6804266666667,99.79200000000003L315.21989333333335,88.368L316.3908533333333,96.726L317.49834666666663,95.88600000000002L319.70064,110.37600000000003L325.61890666666665,159.558L329.09688,127.25999999999999L330.58517333333333,100.92599999999999L335.9766666666667,152.58599999999998L339.71168,130.662L343.2436,127.97400000000002L344.5795733333333,98.91000000000003L346.9119733333333,112.09800000000001L348.07024,96.55799999999999L351.26896,123.564L356.6668,152.67L360.5636533333333,132.80400000000003L360.9063733333333,85.76400000000001L362.35024,100.33800000000002L363.65765333333337,98.53200000000004L365.39346666666665,104.202L367.36728,107.35200000000003L370.6104266666666,124.15199999999999L372.5493333333333,106.88999999999999L377.10623999999996,141.54000000000002L380.4223733333333,125.118L380.87933333333336,87.27600000000001L382.80554666666666,106.72199999999998L384.24941333333334,100.33800000000002L387.48304,124.02600000000001L391.50048000000004,134.39999999999998L396.27634666666665,144.438L399.41477333333336,122.76600000000002L400.28744000000006,92.77800000000002L402.99111999999997,117.012L411.20688,189.96599999999998L417.82327999999995,168.798L423.39565333333337,154.98000000000002L429.5836533333333,163.12800000000001L431.96048,112.68599999999998L436.20005333333336,137.33999999999997L437.81845333333337,102.64800000000002L440.0366133333334,110.58600000000001L444.1714666666667,135.954L445.85333333333335,103.488L448.5982666666667,117.55799999999999L454.1833333333333,155.14799999999997L457.1186666666667,120.07799999999997L458.2007733333333,95.55000000000001L460.70136,114.32400000000001L465.5692533333333,145.65599999999998L473.58191999999997,187.27800000000002L476.9361333333333,125.62200000000001L479.55413333333337,115.87799999999999L482.1150133333333,115.12200000000001L486.97973333333334,145.614L495.29704000000004,191.31L501.78968,167.16L507.3906133333333,155.358L512.8043200000001,152.88000000000002L516.7424266666667,133.35L526.7669866666666,213.906L529.94984,123.35400000000001L536.4202666666666,166.86599999999999L539.36512,120.20400000000001L548.8406933333333,206.64000000000001L559.1603733333334,217.812L566.73512,181.48200000000003L571.5681066666666,145.194L574.9064533333333,125.41199999999998L584.5406933333334,208.74L589.3578133333333,144.98399999999998L594.92384,154.89600000000002L600.68344,157.458L605.0689866666667,139.27200000000002L610.21296,149.31L613.3640800000001,122.934L620.1962666666666,171.654L625.8511466666666,156.072L633.9050666666666,187.824L638.1668533333333,137.63400000000001L645.3639733333333,176.484L650.8570133333333,153.93L656.2612,152.754L664.4008,188.95800000000003L671.0140266666667,168.756L676.9196,159.39L685.1290133333333,189.882L693.07504,186.396L696.32136,124.19400000000002L703.68032,178.62599999999998L706.0666666666667,112.81200000000001L708.4403199999999,112.644L712.5497866666667,135.618L721.3462666666666,197.65200000000002L725.6937333333334,138.76800000000003L730.1903466666666,140.742L737.4033333333333,176.694L741.4398133333333,134.652L743.24544,105.12599999999998L756.3195733333333,254.26800000000003L758.8487200000001,114.702L761.6412533333332,118.18799999999999L763.5738133333334,106.80599999999998L769.8443199999999,164.22L775.2485066666667,152.754L777.82208,115.29000000000002L783.3087733333333,153.846L785.12392,105.25200000000001L787.2532266666667,109.40999999999997L793.3904533333333,162.45600000000002L796.29088,119.61599999999999L798.3979733333333,109.11599999999999L803.3928,147.336L808.8699733333334,153.71999999999997L811.9544533333333,122.05199999999999L818.09168,162.45600000000002L821.7156266666667,129.19199999999998L829.2396,180.81000000000003L840.8317866666666,234.654L845.3125333333334,140.53199999999998L849.0158133333333,130.242L855.8480000000001,171.654L861.1157333333333,150.948L869.3283200000001,189.924L875.8368266666668,167.37L889.5837066666668,263.172L896.5777333333333,173.796L900.43016,132.21599999999998L904.9236000000001,140.70000000000002L909.9247733333333,147.42000000000002L916.0969066666667,162.918L918.2960266666666,110.334L935.3463466666666,306.894L946.3514666666667,226.884L953.2026933333334,171.90599999999998L957.2486933333332,134.778L967.4953866666667,216.846L981.3342933333333,264.39L985.5548266666667,137.08800000000002L991.4159733333335,158.802L995.0557866666667,129.40200000000002L1010.4972266666666,285.6L1016.9708266666668,166.90800000000002L1019.3952533333332,113.31600000000003L1022.6859999999999,124.78200000000001L1024.5931733333334,106.46999999999997L1026.7383466666668,109.62L1033.0850133333333,165.228L1040.9707466666666,185.59799999999998L1044.18216,123.732L1050.2432266666667,161.448L1060.0361333333333,210.84L1062.99368,120.37200000000001L1065.0341333333333,108.23399999999998L1069.4990133333333,140.322L1070.8794133333333,99.49799999999999L1073.0785333333333,110.334L1082.6366133333333,207.732L1093.2038133333333,221.088L1095.19984,107.64600000000002L1104.7261866666665,207.312L1115.7186133333332,226.716L1119.13312,126.41999999999999L1123.30288,136.41600000000003L1131.0553333333332,183.83399999999997L1137.5194133333332,166.78199999999998L1144.2913066666665,170.856L1145.1322400000001,92.358L1158.7331466666667,261.24L1162.8204,135.32399999999998L1170.1508000000001,178.248L1174.3237333333332,136.458L1179.3978933333333,148.386L1182.2253333333333,118.64999999999998L1199.5929866666665,311.094L1203.4454133333334,132.21599999999998L1206.7615466666666,125.118L1209.9126666666666,122.934L1214.2188800000001,138.222L1217.7761866666667,128.31L1222.4949333333334,143.682L1226.2934133333333,131.502L1233.7444,179.844L1236.66704,119.90999999999997L1242.2013333333334,154.47599999999997L1247.39608,149.982L1252.51784,149.01600000000002L1256.6463466666667,135.87L1260.7558133333334,135.618L1271.2563733333334,220.206L1275.7625066666667,140.86800000000002L1282.7819200000001,174.132L1285.3681866666666,115.45799999999997L1290.0393333333334,143.05200000000002L1299.7941600000001,210.336" style="fill: none;" fill="none"></path></g></g></g></g></g></g><g transform="translate(70, 378)" clip-path="url(#clip_1)"><clipPath id="clip_1"><rect width="1428" height="22"></rect></clipPath><g><g><line x1="0" y1="0" x2="0" y2="5" style="visibility: inherit;" fill="rgb(0, 0, 0)" stroke="rgb(204, 204, 204)" stroke-width="1px"></line><line x1="158.66666666666666" y1="0" x2="158.66666666666666" y2="5" style="visibility: inherit;" fill="rgb(0, 0, 0)" stroke="rgb(204, 204, 204)" stroke-width="1px"></line><line x1="317.3333333333333" y1="0" x2="317.3333333333333" y2="5" style="visibility: inherit;" fill="rgb(0, 0, 0)" stroke="rgb(204, 204, 204)" stroke-width="1px"></line><line x1="476" y1="0" x2="476" y2="5" style="visibility: inherit;" fill="rgb(0, 0, 0)" stroke="rgb(204, 204, 204)" stroke-width="1px"></line><line x1="634.6666666666666" y1="0" x2="634.6666666666666" y2="5" style="visibility: inherit;" fill="rgb(0, 0, 0)" stroke="rgb(204, 204, 204)" stroke-width="1px"></line><line x1="793.3333333333334" y1="0" x2="793.3333333333334" y2="5" style="visibility: inherit;" fill="rgb(0, 0, 0)" stroke="rgb(204, 204, 204)" stroke-width="1px"></line><line x1="952" y1="0" x2="952" y2="5" style="visibility: inherit;" fill="rgb(0, 0, 0)" stroke="rgb(204, 204, 204)" stroke-width="1px"></line><line x1="1110.6666666666667" y1="0" x2="1110.6666666666667" y2="5" style="visibility: inherit;" fill="rgb(0, 0, 0)" stroke="rgb(204, 204, 204)" stroke-width="1px"></line><line x1="1269.3333333333333" y1="0" x2="1269.3333333333333" y2="5" style="visibility: inherit;" fill="rgb(0, 0, 0)" stroke="rgb(204, 204, 204)" stroke-width="1px"></line><line x1="1428" y1="0" x2="1428" y2="5" style="visibility: inherit;" fill="rgb(0, 0, 0)" stroke="rgb(204, 204, 204)" stroke-width="1px"></line></g><g transform="translate(0, 8)"><text x="0" y="0" dx="0em" dy="0.95em" style="text-anchor: middle; visibility: hidden; font-family: &quot;Helvetica Neue&quot;, sans-serif; font-size: 12px; font-weight: 200;" fill="rgb(50, 49, 63)" stroke="none" stroke-width="1px">-50k</text><text x="158.66666666666666" y="0" dx="0em" dy="0.95em" style="text-anchor: middle; visibility: inherit; font-family: &quot;Helvetica Neue&quot;, sans-serif; font-size: 12px; font-weight: 200;" fill="rgb(50, 49, 63)" stroke="none" stroke-width="1px">0</text><text x="317.3333333333333" y="0" dx="0em" dy="0.95em" style="text-anchor: middle; visibility: inherit; font-family: &quot;Helvetica Neue&quot;, sans-serif; font-size: 12px; font-weight: 200;" fill="rgb(50, 49, 63)" stroke="none" stroke-width="1px">50k</text><text x="476" y="0" dx="0em" dy="0.95em" style="text-anchor: middle; visibility: inherit; font-family: &quot;Helvetica Neue&quot;, sans-serif; font-size: 12px; font-weight: 200;" fill="rgb(50, 49, 63)" stroke="none" stroke-width="1px">100k</text><text x="634.6666666666666" y="0" dx="0em" dy="0.95em" style="text-anchor: middle; visibility: inherit; font-family: &quot;Helvetica Neue&quot;, sans-serif; font-size: 12px; font-weight: 200;" fill="rgb(50, 49, 63)" stroke="none" stroke-width="1px">150k</text><text x="793.3333333333334" y="0" dx="0em" dy="0.95em" style="text-anchor: middle; visibility: inherit; font-family: &quot;Helvetica Neue&quot;, sans-serif; font-size: 12px; font-weight: 200;" fill="rgb(50, 49, 63)" stroke="none" stroke-width="1px">200k</text><text x="952" y="0" dx="0em" dy="0.95em" style="text-anchor: middle; visibility: inherit; font-family: &quot;Helvetica Neue&quot;, sans-serif; font-size: 12px; font-weight: 200;" fill="rgb(50, 49, 63)" stroke="none" stroke-width="1px">250k</text><text x="1110.6666666666667" y="0" dx="0em" dy="0.95em" style="text-anchor: middle; visibility: inherit; font-family: &quot;Helvetica Neue&quot;, sans-serif; font-size: 12px; font-weight: 200;" fill="rgb(50, 49, 63)" stroke="none" stroke-width="1px">300k</text><text x="1269.3333333333333" y="0" dx="0em" dy="0.95em" style="text-anchor: middle; visibility: inherit; font-family: &quot;Helvetica Neue&quot;, sans-serif; font-size: 12px; font-weight: 200;" fill="rgb(50, 49, 63)" stroke="none" stroke-width="1px">350k</text><text x="1428" y="0" dx="0em" dy="0.95em" style="text-anchor: middle; visibility: hidden; font-family: &quot;Helvetica Neue&quot;, sans-serif; font-size: 12px; font-weight: 200;" fill="rgb(50, 49, 63)" stroke="none" stroke-width="1px">400k</text></g><line x1="0" y1="0" x2="1428" y2="0" fill="rgb(0, 0, 0)" stroke="rgb(204, 204, 204)" stroke-width="1px"></line></g></g></g></g></svg>